<svg width="194" height="67" viewBox="0 0 194 67" fill="none" xmlns="http://www.w3.org/2000/svg">
<path d="M22.84 12.856C24.12 12.856 25.192 13.288 26.056 14.152C26.92 14.984 27.352 16.008 27.352 17.224C27.384 18.12 27.16 19 26.68 19.864C26.232 20.696 25.592 21.384 24.76 21.928C23.96 22.44 23.032 22.696 21.976 22.696C20.696 22.696 19.624 22.264 18.76 21.4C17.928 20.504 17.512 19.416 17.512 18.136C17.512 17.304 17.736 16.488 18.184 15.688C18.632 14.856 19.256 14.184 20.056 13.672C20.888 13.128 21.816 12.856 22.84 12.856ZM11.368 30.04C11.432 29.88 11.464 29.656 11.464 29.368C11.464 29.016 11.384 28.744 11.224 28.552C11.096 28.36 10.872 28.12 10.552 27.832C10.232 27.576 10.008 27.352 9.88 27.16C9.752 26.968 9.736 26.712 9.832 26.392C10.024 25.656 11.032 25.016 12.856 24.472C14.68 23.896 16.584 23.608 18.568 23.608C20.424 23.608 21.784 23.96 22.648 24.664C23.512 25.368 23.944 26.328 23.944 27.544C23.944 28.28 23.832 28.984 23.608 29.656L17.704 49.528C16.744 52.696 15.24 54.92 13.192 56.2C11.144 57.48 8.392 58.12 4.936 58.12C3.56 58.12 2.376 57.944 1.384 57.592C0.36 57.24 -0.0560002 56.76 0.136 56.152C0.2 55.928 0.344 55.72 0.568 55.528C0.792 55.336 1.128 55.128 1.576 54.904C2.408 54.456 3.112 53.96 3.688 53.416C4.232 52.904 4.664 52.136 4.984 51.112L11.368 30.04ZM51.5901 42.376C51.5261 42.632 51.4941 42.824 51.4941 42.952C51.4941 43.176 51.5421 43.352 51.6381 43.48C51.7661 43.608 51.9261 43.672 52.1181 43.672C52.5021 43.672 52.8221 43.512 53.0781 43.192C53.3661 42.84 53.5581 42.664 53.6541 42.664C53.8141 42.664 53.9421 42.776 54.0381 43C54.1661 43.192 54.2301 43.432 54.2301 43.72C54.2621 44.616 53.9421 45.512 53.2701 46.408C52.5981 47.272 51.6541 47.992 50.4381 48.568C49.2221 49.144 47.8621 49.432 46.3581 49.432C44.4701 49.432 42.9661 49.048 41.8461 48.28C40.7261 47.512 40.0061 46.504 39.6861 45.256C38.5341 46.536 37.2541 47.512 35.8461 48.184C34.4701 48.824 33.0621 49.144 31.6221 49.144C29.3821 49.144 27.4941 48.6 25.9581 47.512C24.4541 46.392 23.7021 44.84 23.7021 42.856C23.7021 41.96 23.8621 41.032 24.1821 40.072L27.2541 30.04C27.3501 29.752 27.3981 29.512 27.3981 29.32C27.3981 28.968 27.3181 28.696 27.1581 28.504C26.9981 28.28 26.7581 28.056 26.4381 27.832C26.1181 27.576 25.8941 27.352 25.7661 27.16C25.6381 26.968 25.6221 26.712 25.7181 26.392C25.9101 25.656 26.9181 25.016 28.7421 24.472C30.5661 23.896 32.4701 23.608 34.4541 23.608C36.3101 23.608 37.6701 23.96 38.5341 24.664C39.3981 25.368 39.8301 26.328 39.8301 27.544C39.8301 28.28 39.7181 28.984 39.4941 29.656L36.4701 39.64C36.3421 39.992 36.2781 40.328 36.2781 40.648C36.2781 41.096 36.4061 41.432 36.6621 41.656C36.9181 41.88 37.2541 41.992 37.6701 41.992C38.2781 41.992 38.7741 41.816 39.1581 41.464C39.5421 41.112 39.9261 40.52 40.3101 39.688L43.2381 30.04C43.3341 29.752 43.3821 29.512 43.3821 29.32C43.3821 28.968 43.3021 28.696 43.1421 28.504C42.9821 28.28 42.7581 28.056 42.4701 27.832C42.1501 27.576 41.9261 27.352 41.7981 27.16C41.6701 26.968 41.6541 26.712 41.7501 26.392C41.9101 25.656 42.9021 25.016 44.7261 24.472C46.5501 23.896 48.4541 23.608 50.4381 23.608C52.2941 23.608 53.6541 23.96 54.5181 24.664C55.4141 25.368 55.8621 26.312 55.8621 27.496C55.8621 28.104 55.7341 28.824 55.4781 29.656L51.5901 42.376ZM101.632 42.376C101.568 42.504 101.536 42.696 101.536 42.952C101.536 43.176 101.584 43.352 101.68 43.48C101.808 43.608 101.968 43.672 102.16 43.672C102.544 43.672 102.864 43.512 103.12 43.192C103.408 42.84 103.6 42.664 103.696 42.664C103.856 42.664 103.984 42.776 104.08 43C104.176 43.192 104.224 43.432 104.224 43.72C104.256 44.648 103.952 45.56 103.312 46.456C102.672 47.32 101.728 48.04 100.48 48.616C99.2644 49.16 97.7924 49.432 96.0644 49.432C93.9524 49.432 92.2724 48.952 91.0244 47.992C89.7764 47 89.1364 45.688 89.1044 44.056C89.1044 42.872 89.3924 41.544 89.9684 40.072L92.6084 33.16C92.7684 32.744 92.8484 32.408 92.8484 32.152C92.8484 31.736 92.7044 31.416 92.4164 31.192C92.1604 30.936 91.8404 30.808 91.4564 30.808C90.9124 30.808 90.3524 31.048 89.7764 31.528C89.2004 32.008 88.6884 32.76 88.2404 33.784L85.6004 42.376C85.5364 42.504 85.5044 42.696 85.5044 42.952C85.5044 43.176 85.5524 43.352 85.6484 43.48C85.7764 43.608 85.9364 43.672 86.1284 43.672C86.5124 43.672 86.8324 43.512 87.0884 43.192C87.3764 42.84 87.5684 42.664 87.6644 42.664C87.8244 42.664 87.9524 42.776 88.0484 43C88.1444 43.192 88.1924 43.432 88.1924 43.72C88.2244 44.648 87.9204 45.56 87.2804 46.456C86.6404 47.32 85.6964 48.04 84.4484 48.616C83.2324 49.16 81.7604 49.432 80.0324 49.432C77.9204 49.432 76.2404 48.952 74.9924 47.992C73.7444 47 73.1044 45.688 73.0724 44.056C73.0724 42.872 73.3604 41.544 73.9364 40.072L76.5764 33.16C76.7364 32.744 76.8164 32.408 76.8164 32.152C76.8164 31.736 76.6724 31.416 76.3844 31.192C76.1284 30.936 75.8084 30.808 75.4244 30.808C74.8804 30.808 74.3204 31.048 73.7444 31.528C73.1684 31.976 72.6884 32.712 72.3044 33.736L69.1364 44.008C69.0084 44.36 68.9444 44.696 68.9444 45.016C68.9444 45.4 69.0244 45.72 69.1844 45.976C69.3444 46.2 69.5684 46.44 69.8564 46.696C70.0804 46.888 70.2404 47.064 70.3364 47.224C70.4324 47.384 70.4484 47.576 70.3844 47.8C70.2564 48.216 69.9524 48.52 69.4724 48.712C68.9924 48.904 68.2404 49 67.2164 49H56.2724C55.4404 49 54.8484 48.872 54.4964 48.616C54.1124 48.328 53.9684 47.96 54.0644 47.512C54.1924 47.128 54.5284 46.792 55.0724 46.504C55.5524 46.248 55.9524 45.944 56.2724 45.592C56.5924 45.24 56.8644 44.68 57.0884 43.912L61.3604 30.04C61.4244 29.88 61.4564 29.656 61.4564 29.368C61.4564 29.016 61.3764 28.744 61.2164 28.552C61.0884 28.36 60.8644 28.12 60.5444 27.832C60.2244 27.576 60.0004 27.352 59.8724 27.16C59.7444 26.968 59.7284 26.712 59.8244 26.392C60.0164 25.656 61.0244 25.016 62.8484 24.472C64.6724 23.896 66.5764 23.608 68.5604 23.608C70.1284 23.608 71.3604 24.04 72.2564 24.904C73.1844 25.768 73.6324 26.952 73.6004 28.456C74.9124 26.632 76.2884 25.368 77.7284 24.664C79.2004 23.96 80.7844 23.608 82.4804 23.608C84.3364 23.608 85.8404 24.152 86.9924 25.24C88.1764 26.296 88.8324 27.688 88.9604 29.416C90.3364 27.24 91.8084 25.736 93.3764 24.904C94.9444 24.04 96.6564 23.608 98.5124 23.608C100.464 23.608 102.032 24.2 103.216 25.384C104.432 26.568 105.04 28.104 105.04 29.992C105.04 30.984 104.88 31.96 104.56 32.92L101.632 42.376ZM135.369 15.784C136.393 15.784 137.385 16.008 138.345 16.456C139.337 16.872 140.137 17.464 140.745 18.232C141.385 18.968 141.705 19.768 141.705 20.632C141.705 22.52 140.425 23.464 137.865 23.464C137.129 23.464 136.553 23.416 136.137 23.32C135.753 23.192 135.289 23 134.745 22.744C134.649 22.968 134.601 23.288 134.601 23.704C134.601 24.216 134.681 24.824 134.841 25.528C135.033 26.232 135.257 26.888 135.513 27.496C136.185 28.488 136.521 29.672 136.521 31.048C136.521 31.656 136.441 32.392 136.281 33.256C135.897 34.92 135.049 36.44 133.737 37.816C132.457 39.192 130.793 40.28 128.745 41.08C126.729 41.848 124.505 42.232 122.073 42.232C120.217 42.232 118.473 42.104 116.841 41.848C116.361 42.264 116.121 42.776 116.121 43.384C116.121 43.8 116.313 44.152 116.697 44.44C117.081 44.696 117.721 44.824 118.617 44.824H125.817C128.281 44.824 130.201 45.256 131.577 46.12C132.953 46.952 133.641 48.152 133.641 49.72C133.641 50.296 133.545 50.888 133.353 51.496C132.969 52.744 132.089 53.896 130.713 54.952C129.369 56.04 127.465 56.92 125.001 57.592C122.537 58.264 119.545 58.6 116.025 58.6C112.889 58.6 110.233 58.328 108.057 57.784C105.881 57.24 104.265 56.488 103.209 55.528C102.121 54.6 101.577 53.56 101.577 52.408C101.577 52.152 101.641 51.768 101.769 51.256C102.057 50.328 102.713 49.576 103.737 49C104.729 48.392 106.377 47.992 108.681 47.8C107.913 47.064 107.529 46.184 107.529 45.16C107.529 44.808 107.577 44.44 107.673 44.056C108.185 42.392 109.689 41.16 112.185 40.36C109.785 39.048 108.585 37.128 108.585 34.6C108.585 33.896 108.681 33.16 108.873 32.392C109.257 30.728 110.105 29.224 111.417 27.88C112.729 26.504 114.409 25.416 116.457 24.616C118.505 23.816 120.745 23.416 123.177 23.416C126.985 23.416 129.977 23.912 132.153 24.904C131.673 24.168 131.289 23.384 131.001 22.552C130.745 21.688 130.617 20.904 130.617 20.2C130.617 18.984 131.001 17.944 131.769 17.08C132.569 16.216 133.769 15.784 135.369 15.784ZM124.953 32.824C125.465 31.192 125.721 29.944 125.721 29.08C125.721 27.992 125.257 27.448 124.329 27.448C123.529 27.448 122.825 27.848 122.217 28.648C121.641 29.416 121.049 30.808 120.441 32.824C119.929 34.488 119.673 35.752 119.673 36.616C119.673 37.672 120.121 38.2 121.017 38.2C121.817 38.2 122.521 37.8 123.129 37C123.737 36.2 124.345 34.808 124.953 32.824ZM115.401 49.672C114.505 49.672 113.689 49.624 112.953 49.528C112.569 50.008 112.377 50.648 112.377 51.448C112.409 52.248 112.729 52.824 113.337 53.176C113.977 53.528 114.953 53.704 116.265 53.704C117.865 53.704 119.161 53.464 120.153 52.984C121.177 52.504 121.689 51.816 121.689 50.92C121.689 50.536 121.545 50.232 121.257 50.008C120.969 49.784 120.553 49.672 120.009 49.672H115.401ZM153.886 23.608C157.566 23.608 160.51 24.296 162.718 25.672C164.926 27.016 166.03 29.08 166.03 31.864C166.03 32.92 165.838 34.12 165.454 35.464L163.486 42.088C163.454 42.216 163.438 42.376 163.438 42.568C163.438 43.08 163.646 43.336 164.062 43.336C164.446 43.336 164.766 43.176 165.022 42.856C165.31 42.504 165.502 42.328 165.598 42.328C165.758 42.328 165.886 42.44 165.982 42.664C166.11 42.888 166.174 43.144 166.174 43.432C166.206 44.296 165.87 45.176 165.166 46.072C164.494 46.968 163.582 47.704 162.43 48.28C161.278 48.856 160.014 49.144 158.638 49.144C156.974 49.144 155.55 48.84 154.366 48.232C153.182 47.624 152.366 46.728 151.918 45.544C150.958 46.696 149.822 47.592 148.51 48.232C147.198 48.84 145.79 49.144 144.286 49.144C142.59 49.144 141.166 48.824 140.014 48.184C138.862 47.512 137.998 46.664 137.422 45.64C136.878 44.584 136.606 43.48 136.606 42.328C136.606 41.816 136.654 41.32 136.75 40.84C137.262 38.632 138.366 36.968 140.062 35.848C141.79 34.728 143.838 34.168 146.206 34.168C148.862 34.168 151.47 34.584 154.03 35.416L155.23 32.248C155.646 30.904 155.854 29.864 155.854 29.128C155.822 28.36 155.566 27.784 155.086 27.4C154.606 27.016 153.87 26.824 152.878 26.824C153.07 27.336 153.166 27.864 153.166 28.408C153.166 29.592 152.718 30.616 151.822 31.48C150.926 32.344 149.646 32.776 147.982 32.776C146.414 32.776 145.182 32.44 144.286 31.768C143.422 31.064 142.99 30.2 142.99 29.176C142.99 27.576 143.886 26.248 145.678 25.192C147.47 24.136 150.206 23.608 153.886 23.608ZM151.198 38.152C150.302 38.152 149.566 38.504 148.99 39.208C148.446 39.88 148.174 40.616 148.174 41.416C148.174 41.928 148.286 42.344 148.51 42.664C148.766 42.984 149.118 43.144 149.566 43.144C149.982 43.144 150.43 42.984 150.91 42.664C151.422 42.312 151.79 41.8 152.014 41.128L153.022 38.296C152.478 38.2 151.87 38.152 151.198 38.152ZM173.868 39.304C175.148 39.304 176.22 39.736 177.084 40.6C177.98 41.464 178.428 42.52 178.428 43.768C178.428 44.632 178.188 45.48 177.708 46.312C177.26 47.144 176.62 47.832 175.788 48.376C174.988 48.888 174.076 49.144 173.052 49.144C171.804 49.144 170.748 48.712 169.884 47.848C169.02 46.984 168.572 45.928 168.54 44.68C168.54 43.816 168.764 42.968 169.212 42.136C169.66 41.304 170.284 40.632 171.084 40.12C171.916 39.576 172.844 39.304 173.868 39.304Z" fill="white"/>
<path d="M174 5.25H171.75C171.551 5.25 171.36 5.32902 171.22 5.46967C171.079 5.61032 171 5.80109 171 6C171 6.19891 171.079 6.38968 171.22 6.53033C171.36 6.67098 171.551 6.75 171.75 6.75H172.125V9C172.125 9.19891 172.204 9.38968 172.345 9.53033C172.485 9.67098 172.676 9.75 172.875 9.75C173.074 9.75 173.265 9.67098 173.405 9.53033C173.546 9.38968 173.625 9.19891 173.625 9V6.75H174C174.199 6.75 174.39 6.67098 174.53 6.53033C174.671 6.38968 174.75 6.19891 174.75 6C174.75 5.80109 174.671 5.61032 174.53 5.46967C174.39 5.32902 174.199 5.25 174 5.25ZM179.535 5.31C179.398 5.25256 179.248 5.23687 179.102 5.2649C178.957 5.29293 178.823 5.36343 178.718 5.4675L177.75 6.4425L176.783 5.4675C176.677 5.36343 176.543 5.29293 176.398 5.2649C176.252 5.23687 176.102 5.25256 175.965 5.31C175.828 5.36626 175.711 5.46181 175.628 5.5846C175.545 5.70739 175.501 5.85193 175.5 6V9C175.5 9.19891 175.579 9.38968 175.72 9.53033C175.86 9.67098 176.051 9.75 176.25 9.75C176.449 9.75 176.64 9.67098 176.78 9.53033C176.921 9.38968 177 9.19891 177 9V7.8075L177.218 8.0325C177.287 8.10279 177.37 8.15859 177.462 8.19667C177.553 8.23474 177.651 8.25435 177.75 8.25435C177.849 8.25435 177.947 8.23474 178.038 8.19667C178.13 8.15859 178.213 8.10279 178.283 8.0325L178.5 7.8075V9C178.5 9.19891 178.579 9.38968 178.72 9.53033C178.86 9.67098 179.051 9.75 179.25 9.75C179.449 9.75 179.64 9.67098 179.78 9.53033C179.921 9.38968 180 9.19891 180 9V6C179.999 5.85193 179.955 5.70739 179.872 5.5846C179.789 5.46181 179.672 5.36626 179.535 5.31ZM175.5 0C174.017 0 172.567 0.439867 171.333 1.26398C170.1 2.08809 169.139 3.25943 168.571 4.62987C168.003 6.00032 167.855 7.50832 168.144 8.96318C168.434 10.418 169.148 11.7544 170.197 12.8033C171.246 13.8522 172.582 14.5665 174.037 14.8559C175.492 15.1453 177 14.9968 178.37 14.4291C179.741 13.8614 180.912 12.9001 181.736 11.6668C182.56 10.4334 183 8.98336 183 7.5C183 6.51508 182.806 5.53981 182.429 4.62987C182.052 3.71993 181.5 2.89314 180.803 2.1967C180.107 1.50026 179.28 0.947814 178.37 0.570903C177.46 0.193993 176.485 0 175.5 0ZM175.5 13.5C174.313 13.5 173.153 13.1481 172.167 12.4888C171.18 11.8295 170.411 10.8925 169.957 9.7961C169.503 8.69974 169.384 7.49334 169.615 6.32946C169.847 5.16557 170.418 4.09647 171.257 3.25736C172.096 2.41824 173.166 1.8468 174.329 1.61529C175.493 1.38378 176.7 1.5026 177.796 1.95672C178.892 2.41085 179.83 3.17988 180.489 4.16658C181.148 5.15327 181.5 6.31331 181.5 7.5C181.5 9.0913 180.868 10.6174 179.743 11.7426C178.617 12.8679 177.091 13.5 175.5 13.5Z" fill="white"/>
</svg>
