<svg width="43" height="43" viewBox="0 0 43 43" fill="none" xmlns="http://www.w3.org/2000/svg">
<path d="M39.616 11.5885L26.1785 4.19789C25.9801 4.08873 25.7573 4.03149 25.5308 4.03149C25.3043 4.03149 25.0816 4.08873 24.8831 4.19789L11.4456 11.5885C11.235 11.7045 11.0593 11.8749 10.9369 12.082C10.8145 12.289 10.75 12.5251 10.75 12.7656C10.75 13.0061 10.8145 13.2422 10.9369 13.4493C11.0593 13.6563 11.235 13.8268 11.4456 13.9428L24.1871 20.9504V35.3541L20.1074 33.11L18.8121 35.4629L24.8831 38.8021C25.0815 38.9115 25.3043 38.9689 25.5308 38.9689C25.7573 38.9689 25.9802 38.9115 26.1785 38.8021L39.616 31.4115C39.8268 31.2956 40.0025 31.1252 40.125 30.9181C40.2474 30.7111 40.312 30.4749 40.3121 30.2344V12.7656C40.312 12.5251 40.2474 12.289 40.125 12.0819C40.0025 11.8749 39.8268 11.7045 39.616 11.5885ZM25.5308 6.90958L36.18 12.7656L25.5308 18.6217L14.8816 12.7656L25.5308 6.90958ZM37.6246 29.4402L26.8746 35.3527V20.9491L37.6246 15.0366V29.4402Z" fill="white"/>
<path d="M13.4375 21.5H2.6875V18.8125H13.4375V21.5Z" fill="white"/>
<path d="M16.125 32.25H5.375V29.5625H16.125V32.25Z" fill="white"/>
<path d="M18.8125 26.875H8.0625V24.1875H18.8125V26.875Z" fill="white"/>
</svg>
