<svg width="43" height="43" viewBox="0 0 43 43" fill="none" xmlns="http://www.w3.org/2000/svg">
<path d="M14.334 10.75H35.834V14.9306H14.334V10.75Z" fill="#D0CFCE"/>
<path d="M14.334 19.7083H35.834V23.8889H14.334V19.7083Z" fill="#D0CFCE"/>
<path d="M14.334 28.6667H35.834V32.8472H14.334V28.6667Z" fill="#D0CFCE"/>
<path d="M7.16602 28.6667H11.3466V32.8472H7.16602V28.6667Z" fill="#9B9B9A"/>
<path d="M7.16602 19.7083H11.3466V23.8889H7.16602V19.7083Z" fill="#9B9B9A"/>
<path d="M7.16602 10.75H11.3466V14.9306H7.16602V10.75Z" fill="#9B9B9A"/>
<path d="M35.2348 14.9306H14.9293C14.7709 14.9306 14.619 14.8676 14.507 14.7556C14.395 14.6436 14.332 14.4917 14.332 14.3333V11.3472C14.332 11.1888 14.395 11.0369 14.507 10.9249C14.619 10.8129 14.7709 10.75 14.9293 10.75H35.2348C35.3932 10.75 35.5451 10.8129 35.6571 10.9249C35.7691 11.0369 35.832 11.1888 35.832 11.3472V14.3333C35.832 14.4917 35.7691 14.6436 35.6571 14.7556C35.5451 14.8676 35.3932 14.9306 35.2348 14.9306Z" stroke="black" stroke-width="0.5" stroke-miterlimit="10" stroke-linecap="round" stroke-linejoin="round"/>
<path d="M35.2348 23.8889H14.9293C14.7709 23.8889 14.619 23.826 14.507 23.714C14.395 23.602 14.332 23.4501 14.332 23.2917V20.3056C14.332 20.1472 14.395 19.9953 14.507 19.8833C14.619 19.7713 14.7709 19.7083 14.9293 19.7083H35.2348C35.3932 19.7083 35.5451 19.7713 35.6571 19.8833C35.7691 19.9953 35.832 20.1472 35.832 20.3056V23.2917C35.832 23.4501 35.7691 23.602 35.6571 23.714C35.5451 23.826 35.3932 23.8889 35.2348 23.8889Z" stroke="black" stroke-width="0.5" stroke-miterlimit="10" stroke-linecap="round" stroke-linejoin="round"/>
<path d="M35.2348 32.8472H14.9293C14.7709 32.8472 14.619 32.7843 14.507 32.6723C14.395 32.5603 14.332 32.4084 14.332 32.25V29.2639C14.332 29.1055 14.395 28.9536 14.507 28.8416C14.619 28.7296 14.7709 28.6667 14.9293 28.6667H35.2348C35.3932 28.6667 35.5451 28.7296 35.6571 28.8416C35.7691 28.9536 35.832 29.1055 35.832 29.2639V32.25C35.832 32.4084 35.7691 32.5603 35.6571 32.6723C35.5451 32.7843 35.3932 32.8472 35.2348 32.8472Z" stroke="black" stroke-width="0.5" stroke-miterlimit="10" stroke-linecap="round" stroke-linejoin="round"/>
<path d="M10.7493 14.9306H7.76324C7.60484 14.9306 7.45294 14.8676 7.34094 14.7556C7.22894 14.6436 7.16602 14.4917 7.16602 14.3333V11.3472C7.16602 11.1888 7.22894 11.0369 7.34094 10.9249C7.45294 10.8129 7.60484 10.75 7.76324 10.75H10.7493C10.9077 10.75 11.0596 10.8129 11.1716 10.9249C11.2836 11.0369 11.3466 11.1888 11.3466 11.3472V14.3333C11.3466 14.4917 11.2836 14.6436 11.1716 14.7556C11.0596 14.8676 10.9077 14.9306 10.7493 14.9306Z" stroke="black" stroke-width="0.5" stroke-miterlimit="10" stroke-linecap="round" stroke-linejoin="round"/>
<path d="M10.7493 23.8889H7.76324C7.60484 23.8889 7.45294 23.826 7.34094 23.714C7.22894 23.602 7.16602 23.4501 7.16602 23.2917V20.3056C7.16602 20.1472 7.22894 19.9953 7.34094 19.8833C7.45294 19.7713 7.60484 19.7083 7.76324 19.7083H10.7493C10.9077 19.7083 11.0596 19.7713 11.1716 19.8833C11.2836 19.9953 11.3466 20.1472 11.3466 20.3056V23.2917C11.3466 23.4501 11.2836 23.602 11.1716 23.714C11.0596 23.826 10.9077 23.8889 10.7493 23.8889Z" stroke="black" stroke-width="0.5" stroke-miterlimit="10" stroke-linecap="round" stroke-linejoin="round"/>
<path d="M10.7493 32.8472H7.76324C7.60484 32.8472 7.45294 32.7843 7.34094 32.6723C7.22894 32.5603 7.16602 32.4084 7.16602 32.25V29.2639C7.16602 29.1055 7.22894 28.9536 7.34094 28.8416C7.45294 28.7296 7.60484 28.6667 7.76324 28.6667H10.7493C10.9077 28.6667 11.0596 28.7296 11.1716 28.8416C11.2836 28.9536 11.3466 29.1055 11.3466 29.2639V32.25C11.3466 32.4084 11.2836 32.5603 11.1716 32.6723C11.0596 32.7843 10.9077 32.8472 10.7493 32.8472Z" stroke="black" stroke-width="0.5" stroke-miterlimit="10" stroke-linecap="round" stroke-linejoin="round"/>
</svg>
