<svg width="80" height="27" viewBox="0 0 80 27" fill="none" xmlns="http://www.w3.org/2000/svg">
<path d="M33.42 8.06V9.54H27.36V14.24H32.28V15.72H27.36V22H25.54V8.06H33.42ZM36.5581 9.26C36.2115 9.26 35.9181 9.14 35.6781 8.9C35.4381 8.66 35.3181 8.36667 35.3181 8.02C35.3181 7.67333 35.4381 7.38 35.6781 7.14C35.9181 6.9 36.2115 6.78 36.5581 6.78C36.8915 6.78 37.1715 6.9 37.3981 7.14C37.6381 7.38 37.7581 7.67333 37.7581 8.02C37.7581 8.36667 37.6381 8.66 37.3981 8.9C37.1715 9.14 36.8915 9.26 36.5581 9.26ZM37.4381 11.04V22H35.6181V11.04H37.4381ZM42.36 7.2V22H40.54V7.2H42.36ZM47.6819 12.54V19C47.6819 19.5333 47.7952 19.9133 48.0219 20.14C48.2485 20.3533 48.6419 20.46 49.2019 20.46H50.5419V22H48.9019C47.8885 22 47.1285 21.7667 46.6219 21.3C46.1152 20.8333 45.8619 20.0667 45.8619 19V12.54H44.4419V11.04H45.8619V8.28H47.6819V11.04H50.5419V12.54H47.6819ZM62.747 16.1C62.747 16.4467 62.727 16.8133 62.687 17.2H53.927C53.9937 18.28 54.3604 19.1267 55.027 19.74C55.707 20.34 56.527 20.64 57.487 20.64C58.2737 20.64 58.927 20.46 59.447 20.1C59.9804 19.7267 60.3537 19.2333 60.567 18.62H62.527C62.2337 19.6733 61.647 20.5333 60.767 21.2C59.887 21.8533 58.7937 22.18 57.487 22.18C56.447 22.18 55.5137 21.9467 54.687 21.48C53.8737 21.0133 53.2337 20.3533 52.767 19.5C52.3004 18.6333 52.067 17.6333 52.067 16.5C52.067 15.3667 52.2937 14.3733 52.747 13.52C53.2004 12.6667 53.8337 12.0133 54.647 11.56C55.4737 11.0933 56.4204 10.86 57.487 10.86C58.527 10.86 59.447 11.0867 60.247 11.54C61.047 11.9933 61.6604 12.62 62.087 13.42C62.527 14.2067 62.747 15.1 62.747 16.1ZM60.867 15.72C60.867 15.0267 60.7137 14.4333 60.407 13.94C60.1004 13.4333 59.6804 13.0533 59.147 12.8C58.627 12.5333 58.047 12.4 57.407 12.4C56.487 12.4 55.7004 12.6933 55.047 13.28C54.407 13.8667 54.0404 14.68 53.947 15.72H60.867ZM66.9694 12.82C67.2894 12.1933 67.7427 11.7067 68.3294 11.36C68.9294 11.0133 69.656 10.84 70.5094 10.84V12.72H70.0294C67.9894 12.72 66.9694 13.8267 66.9694 16.04V22H65.1494V11.04H66.9694V12.82Z" fill="black"/>
<path d="M5.99987 17H9.99987C10.2547 17.0003 10.4999 17.0979 10.6852 17.2728C10.8706 17.4478 10.9821 17.687 10.997 17.9414C11.012 18.1958 10.9292 18.4464 10.7656 18.6418C10.602 18.8373 10.37 18.9629 10.1169 18.993L9.99987 19H5.99987C5.74499 18.9997 5.49984 18.9021 5.3145 18.7272C5.12916 18.5522 5.01763 18.313 5.0027 18.0586C4.98776 17.8042 5.07054 17.5536 5.23413 17.3582C5.39772 17.1627 5.62977 17.0371 5.88287 17.007L5.99987 17H9.99987H5.99987ZM3.99987 12H11.9999C12.2547 12.0003 12.4999 12.0979 12.6852 12.2728C12.8706 12.4478 12.9821 12.687 12.997 12.9414C13.012 13.1958 12.9292 13.4464 12.7656 13.6418C12.602 13.8373 12.37 13.9629 12.1169 13.993L11.9999 14H3.99987C3.74499 13.9997 3.49984 13.9021 3.3145 13.7272C3.12916 13.5522 3.01763 13.313 3.0027 13.0586C2.98776 12.8042 3.07054 12.5536 3.23413 12.3582C3.39772 12.1627 3.62977 12.0371 3.88287 12.007L3.99987 12H11.9999H3.99987ZM0.999868 7H14.9999C15.2547 7.00028 15.4999 7.09788 15.6852 7.27285C15.8706 7.44782 15.9821 7.68695 15.997 7.94139C16.012 8.19584 15.9292 8.44638 15.7656 8.64183C15.602 8.83729 15.37 8.9629 15.1169 8.993L14.9999 9H0.999868C0.744989 8.99972 0.499836 8.90212 0.3145 8.72715C0.129164 8.55218 0.0176337 8.31305 0.0026966 8.05861C-0.0122405 7.80416 0.0705431 7.55362 0.234133 7.35817C0.397724 7.16271 0.629773 7.0371 0.882868 7.007L0.999868 7H14.9999H0.999868Z" fill="black"/>
</svg>
