<svg width="518" height="503" viewBox="0 0 518 503" fill="none" xmlns="http://www.w3.org/2000/svg">
<rect width="517.998" height="493.565" rx="9" fill="#F0F0F0"/>
<path d="M18.0451 485.739H15.7599V492.076H14.8273V485.739H12.547V484.967H18.0451V485.739ZM20.6622 492.174C19.9461 492.174 19.3634 491.94 18.9142 491.471C18.465 490.999 18.2404 490.369 18.2404 489.581V489.415C18.2404 488.891 18.3397 488.424 18.5382 488.014C18.74 487.601 19.02 487.278 19.3781 487.047C19.7394 486.813 20.13 486.696 20.5499 486.696C21.2368 486.696 21.7706 486.922 22.1515 487.374C22.5324 487.827 22.7228 488.475 22.7228 489.318V489.694H19.1437C19.1567 490.214 19.3081 490.636 19.5978 490.958C19.8908 491.277 20.2619 491.437 20.7111 491.437C21.0301 491.437 21.3003 491.372 21.5216 491.241C21.743 491.111 21.9367 490.939 22.1027 490.724L22.6544 491.154C22.2117 491.834 21.5477 492.174 20.6622 492.174ZM20.5499 487.438C20.1854 487.438 19.8794 487.571 19.632 487.838C19.3846 488.102 19.2316 488.473 19.173 488.951H21.8195V488.883C21.7934 488.424 21.6697 488.069 21.4484 487.819C21.227 487.565 20.9275 487.438 20.5499 487.438ZM25.5451 488.722L26.7169 486.793H27.7716L26.0431 489.406L27.8253 492.076H26.7804L25.5597 490.099L24.339 492.076H23.2892L25.0714 489.406L23.3429 486.793H24.3878L25.5451 488.722ZM20.4523 495.514V496.793H21.4386V497.491H20.4523V500.768C20.4523 500.979 20.4962 501.139 20.5841 501.246C20.672 501.351 20.8218 501.403 21.0333 501.403C21.1375 501.403 21.2807 501.383 21.463 501.344V502.076C21.2254 502.142 20.9943 502.174 20.7697 502.174C20.366 502.174 20.0617 502.052 19.8566 501.808C19.6515 501.564 19.549 501.217 19.549 500.768V497.491H18.5871V496.793H19.549V495.514H20.4523Z" fill="#A3A3A3"/>
<path d="M139.972 485.739H137.687V492.076H136.754V485.739H134.474V484.967H139.972V485.739ZM142.589 492.174C141.873 492.174 141.29 491.94 140.841 491.471C140.392 490.999 140.167 490.369 140.167 489.581V489.415C140.167 488.891 140.266 488.424 140.465 488.014C140.667 487.601 140.947 487.278 141.305 487.047C141.666 486.813 142.057 486.696 142.477 486.696C143.164 486.696 143.697 486.922 144.078 487.374C144.459 487.827 144.65 488.475 144.65 489.318V489.694H141.07C141.083 490.214 141.235 490.636 141.525 490.958C141.818 491.277 142.189 491.437 142.638 491.437C142.957 491.437 143.227 491.372 143.448 491.241C143.67 491.111 143.863 490.939 144.029 490.724L144.581 491.154C144.138 491.834 143.474 492.174 142.589 492.174ZM142.477 487.438C142.112 487.438 141.806 487.571 141.559 487.838C141.311 488.102 141.158 488.473 141.1 488.951H143.746V488.883C143.72 488.424 143.596 488.069 143.375 487.819C143.154 487.565 142.854 487.438 142.477 487.438ZM147.472 488.722L148.644 486.793H149.698L147.97 489.406L149.752 492.076H148.707L147.486 490.099L146.266 492.076H145.216L146.998 489.406L145.27 486.793H146.315L147.472 488.722ZM142.379 495.514V496.793H143.365V497.491H142.379V500.768C142.379 500.979 142.423 501.139 142.511 501.246C142.599 501.351 142.749 501.403 142.96 501.403C143.064 501.403 143.207 501.383 143.39 501.344V502.076C143.152 502.142 142.921 502.174 142.696 502.174C142.293 502.174 141.988 502.052 141.783 501.808C141.578 501.564 141.476 501.217 141.476 500.768V497.491H140.514V496.793H141.476V495.514H142.379Z" fill="#A3A3A3"/>
<path d="M261.909 485.739H259.624V492.076H258.692V485.739H256.411V484.967H261.909V485.739ZM264.527 492.174C263.81 492.174 263.228 491.94 262.778 491.471C262.329 490.999 262.105 490.369 262.105 489.581V489.415C262.105 488.891 262.204 488.424 262.402 488.014C262.604 487.601 262.884 487.278 263.242 487.047C263.604 486.813 263.994 486.696 264.414 486.696C265.101 486.696 265.635 486.922 266.016 487.374C266.397 487.827 266.587 488.475 266.587 489.318V489.694H263.008C263.021 490.214 263.172 490.636 263.462 490.958C263.755 491.277 264.126 491.437 264.575 491.437C264.894 491.437 265.165 491.372 265.386 491.241C265.607 491.111 265.801 490.939 265.967 490.724L266.519 491.154C266.076 491.834 265.412 492.174 264.527 492.174ZM264.414 487.438C264.05 487.438 263.744 487.571 263.496 487.838C263.249 488.102 263.096 488.473 263.037 488.951H265.684V488.883C265.658 488.424 265.534 488.069 265.313 487.819C265.091 487.565 264.792 487.438 264.414 487.438ZM269.409 488.722L270.581 486.793H271.636L269.907 489.406L271.69 492.076H270.645L269.424 490.099L268.203 492.076H267.153L268.936 489.406L267.207 486.793H268.252L269.409 488.722ZM264.317 495.514V496.793H265.303V497.491H264.317V500.768C264.317 500.979 264.36 501.139 264.448 501.246C264.536 501.351 264.686 501.403 264.898 501.403C265.002 501.403 265.145 501.383 265.327 501.344V502.076C265.09 502.142 264.859 502.174 264.634 502.174C264.23 502.174 263.926 502.052 263.721 501.808C263.516 501.564 263.413 501.217 263.413 500.768V497.491H262.451V496.793H263.413V495.514H264.317Z" fill="#A3A3A3"/>
<path d="M383.847 485.739H381.562V492.076H380.629V485.739H378.349V484.967H383.847V485.739ZM386.464 492.174C385.748 492.174 385.165 491.94 384.716 491.471C384.267 490.999 384.042 490.369 384.042 489.581V489.415C384.042 488.891 384.141 488.424 384.34 488.014C384.542 487.601 384.822 487.278 385.18 487.047C385.541 486.813 385.932 486.696 386.352 486.696C387.039 486.696 387.572 486.922 387.953 487.374C388.334 487.827 388.525 488.475 388.525 489.318V489.694H384.945C384.958 490.214 385.11 490.636 385.4 490.958C385.693 491.277 386.064 491.437 386.513 491.437C386.832 491.437 387.102 491.372 387.323 491.241C387.545 491.111 387.738 490.939 387.904 490.724L388.456 491.154C388.013 491.834 387.349 492.174 386.464 492.174ZM386.352 487.438C385.987 487.438 385.681 487.571 385.434 487.838C385.186 488.102 385.033 488.473 384.975 488.951H387.621V488.883C387.595 488.424 387.471 488.069 387.25 487.819C387.029 487.565 386.729 487.438 386.352 487.438ZM391.347 488.722L392.519 486.793H393.573L391.845 489.406L393.627 492.076H392.582L391.361 490.099L390.141 492.076H389.091L390.873 489.406L389.145 486.793H390.19L391.347 488.722ZM386.254 495.514V496.793H387.24V497.491H386.254V500.768C386.254 500.979 386.298 501.139 386.386 501.246C386.474 501.351 386.624 501.403 386.835 501.403C386.939 501.403 387.082 501.383 387.265 501.344V502.076C387.027 502.142 386.796 502.174 386.571 502.174C386.168 502.174 385.863 502.052 385.658 501.808C385.453 501.564 385.351 501.217 385.351 500.768V497.491H384.389V496.793H385.351V495.514H386.254Z" fill="#A3A3A3"/>
<path d="M506.698 485.739H504.413V492.076H503.481V485.739H501.2V484.967H506.698V485.739ZM509.316 492.174C508.599 492.174 508.017 491.94 507.568 491.471C507.118 490.999 506.894 490.369 506.894 489.581V489.415C506.894 488.891 506.993 488.424 507.192 488.014C507.393 487.601 507.673 487.278 508.031 487.047C508.393 486.813 508.783 486.696 509.203 486.696C509.89 486.696 510.424 486.922 510.805 487.374C511.186 487.827 511.376 488.475 511.376 489.318V489.694H507.797C507.81 490.214 507.961 490.636 508.251 490.958C508.544 491.277 508.915 491.437 509.364 491.437C509.683 491.437 509.954 491.372 510.175 491.241C510.396 491.111 510.59 490.939 510.756 490.724L511.308 491.154C510.865 491.834 510.201 492.174 509.316 492.174ZM509.203 487.438C508.839 487.438 508.533 487.571 508.285 487.838C508.038 488.102 507.885 488.473 507.826 488.951H510.473V488.883C510.447 488.424 510.323 488.069 510.102 487.819C509.88 487.565 509.581 487.438 509.203 487.438ZM514.198 488.722L515.37 486.793H516.425L514.696 489.406L516.479 492.076H515.434L514.213 490.099L512.992 492.076H511.943L513.725 489.406L511.996 486.793H513.041L514.198 488.722ZM509.106 495.514V496.793H510.092V497.491H509.106V500.768C509.106 500.979 509.15 501.139 509.237 501.246C509.325 501.351 509.475 501.403 509.687 501.403C509.791 501.403 509.934 501.383 510.116 501.344V502.076C509.879 502.142 509.648 502.174 509.423 502.174C509.019 502.174 508.715 502.052 508.51 501.808C508.305 501.564 508.202 501.217 508.202 500.768V497.491H507.24V496.793H508.202V495.514H509.106Z" fill="#A3A3A3"/>
<path d="M10.4353 475.292C10.4353 476.35 10.2547 477.136 9.89334 477.65C9.53201 478.165 8.96723 478.422 8.199 478.422C7.44054 478.422 6.87901 478.171 6.51443 477.67C6.14985 477.165 5.96105 476.413 5.94802 475.414V474.208C5.94802 473.163 6.12869 472.387 6.49002 471.879C6.85135 471.371 7.41775 471.117 8.18924 471.117C8.95421 471.117 9.51736 471.363 9.87869 471.854C10.24 472.343 10.4256 473.098 10.4353 474.12V475.292ZM9.53201 474.057C9.53201 473.292 9.42459 472.735 9.20974 472.387C8.9949 472.035 8.65473 471.859 8.18924 471.859C7.727 471.859 7.39008 472.033 7.17849 472.382C6.9669 472.73 6.85786 473.266 6.85135 473.988V475.433C6.85135 476.202 6.96202 476.77 7.18338 477.138C7.40799 477.502 7.74653 477.684 8.199 477.684C8.64496 477.684 8.97537 477.512 9.19021 477.167C9.40831 476.822 9.52224 476.278 9.53201 475.536V474.057Z" fill="#A3A3A3"/>
<path d="M6.39236 440.838L6.75369 437.293H10.3963V438.128H7.52029L7.30545 440.066C7.65375 439.861 8.04926 439.758 8.49197 439.758C9.13976 439.758 9.65408 439.973 10.0349 440.403C10.4158 440.829 10.6062 441.407 10.6062 442.136C10.6062 442.869 10.4077 443.447 10.0105 443.87C9.61664 444.29 9.06489 444.5 8.35525 444.5C7.727 444.5 7.2143 444.326 6.81717 443.977C6.42003 443.629 6.19379 443.147 6.13845 442.532H6.99295C7.04829 442.939 7.19314 443.246 7.42752 443.455C7.66189 443.66 7.97114 443.762 8.35525 443.762C8.77517 443.762 9.10395 443.619 9.34158 443.333C9.58246 443.046 9.70291 442.651 9.70291 442.146C9.70291 441.671 9.5727 441.29 9.31228 441.004C9.05512 440.714 8.7117 440.569 8.28201 440.569C7.88813 440.569 7.57888 440.655 7.35427 440.828L7.11502 441.023L6.39236 440.838Z" fill="#A3A3A3"/>
<path d="M8.94607 411.397H8.03787V405.376L6.21658 406.045V405.225L8.80447 404.253H8.94607V411.397ZM10.4353 418.365C10.4353 419.423 10.2547 420.209 9.89334 420.723C9.53201 421.237 8.96723 421.495 8.199 421.495C7.44054 421.495 6.87901 421.244 6.51443 420.743C6.14985 420.238 5.96105 419.486 5.94802 418.487V417.281C5.94802 416.236 6.12869 415.459 6.49002 414.952C6.85135 414.444 7.41775 414.19 8.18924 414.19C8.95421 414.19 9.51736 414.436 9.87869 414.927C10.24 415.415 10.4256 416.171 10.4353 417.193V418.365ZM9.53201 417.129C9.53201 416.364 9.42459 415.808 9.20974 415.459C8.9949 415.108 8.65473 414.932 8.18924 414.932C7.727 414.932 7.39008 415.106 7.17849 415.454C6.9669 415.803 6.85786 416.338 6.85135 417.061V418.506C6.85135 419.274 6.96202 419.843 7.18338 420.21C7.40799 420.575 7.74653 420.757 8.199 420.757C8.64496 420.757 8.97537 420.585 9.19021 420.24C9.40831 419.895 9.52224 419.351 9.53201 418.609V417.129Z" fill="#A3A3A3"/>
<path d="M8.94607 377.475H8.03787V371.455L6.21658 372.123V371.303L8.80447 370.331H8.94607V377.475ZM6.39236 383.911L6.75369 380.366H10.3963V381.201H7.52029L7.30545 383.139C7.65375 382.934 8.04926 382.831 8.49197 382.831C9.13976 382.831 9.65408 383.046 10.0349 383.476C10.4158 383.902 10.6062 384.48 10.6062 385.209C10.6062 385.942 10.4077 386.52 10.0105 386.943C9.61664 387.363 9.06489 387.573 8.35525 387.573C7.727 387.573 7.2143 387.399 6.81717 387.05C6.42003 386.702 6.19379 386.22 6.13845 385.605H6.99295C7.04829 386.012 7.19314 386.319 7.42752 386.528C7.66189 386.733 7.97114 386.835 8.35525 386.835C8.77517 386.835 9.10395 386.692 9.34158 386.406C9.58246 386.119 9.70291 385.724 9.70291 385.219C9.70291 384.744 9.5727 384.363 9.31228 384.077C9.05512 383.787 8.7117 383.642 8.28201 383.642C7.88813 383.642 7.57888 383.728 7.35427 383.901L7.11502 384.096L6.39236 383.911Z" fill="#A3A3A3"/>
<path d="M10.6355 343.553H5.97732V342.904L8.43826 340.169C8.80284 339.756 9.05349 339.421 9.19021 339.163C9.33019 338.903 9.40017 338.634 9.40017 338.358C9.40017 337.987 9.28787 337.682 9.06326 337.445C8.83865 337.207 8.53917 337.088 8.16482 337.088C7.7156 337.088 7.36567 337.217 7.11502 337.474C6.86762 337.728 6.74392 338.083 6.74392 338.538H5.8406C5.8406 337.884 6.05056 337.355 6.47049 336.951C6.89366 336.548 7.45844 336.346 8.16482 336.346C8.82563 336.346 9.34809 336.52 9.7322 336.868C10.1163 337.214 10.3084 337.674 10.3084 338.25C10.3084 338.95 9.86241 339.784 8.97049 340.75L7.06619 342.816H10.6355V343.553ZM10.4353 350.521C10.4353 351.579 10.2547 352.365 9.89334 352.879C9.53201 353.394 8.96723 353.651 8.199 353.651C7.44054 353.651 6.87901 353.4 6.51443 352.899C6.14985 352.394 5.96105 351.642 5.94802 350.643V349.437C5.94802 348.392 6.12869 347.616 6.49002 347.108C6.85135 346.6 7.41775 346.346 8.18924 346.346C8.95421 346.346 9.51736 346.592 9.87869 347.083C10.24 347.572 10.4256 348.327 10.4353 349.349V350.521ZM9.53201 349.285C9.53201 348.52 9.42459 347.964 9.20974 347.616C8.9949 347.264 8.65473 347.088 8.18924 347.088C7.727 347.088 7.39008 347.262 7.17849 347.611C6.9669 347.959 6.85786 348.494 6.85135 349.217V350.662C6.85135 351.431 6.96202 351.999 7.18338 352.367C7.40799 352.731 7.74653 352.913 8.199 352.913C8.64496 352.913 8.97537 352.741 9.19021 352.396C9.40831 352.051 9.52224 351.507 9.53201 350.765V349.285Z" fill="#A3A3A3"/>
<path d="M10.6355 310.548H5.97732V309.898L8.43826 307.164C8.80284 306.75 9.05349 306.415 9.19021 306.158C9.33019 305.897 9.40017 305.629 9.40017 305.352C9.40017 304.981 9.28787 304.677 9.06326 304.439C8.83865 304.201 8.53917 304.083 8.16482 304.083C7.7156 304.083 7.36567 304.211 7.11502 304.468C6.86762 304.722 6.74392 305.077 6.74392 305.533H5.8406C5.8406 304.879 6.05056 304.35 6.47049 303.946C6.89366 303.542 7.45844 303.34 8.16482 303.34C8.82563 303.34 9.34809 303.515 9.7322 303.863C10.1163 304.208 10.3084 304.669 10.3084 305.245C10.3084 305.945 9.86241 306.778 8.97049 307.745L7.06619 309.81H10.6355V310.548ZM6.39236 316.983L6.75369 313.438H10.3963V314.273H7.52029L7.30545 316.212C7.65375 316.007 8.04926 315.904 8.49197 315.904C9.13976 315.904 9.65408 316.119 10.0349 316.548C10.4158 316.975 10.6062 317.553 10.6062 318.282C10.6062 319.014 10.4077 319.592 10.0105 320.015C9.61664 320.435 9.06489 320.645 8.35525 320.645C7.727 320.645 7.2143 320.471 6.81717 320.123C6.42003 319.774 6.19379 319.293 6.13845 318.677H6.99295C7.04829 319.084 7.19314 319.392 7.42752 319.6C7.66189 319.805 7.97114 319.908 8.35525 319.908C8.77517 319.908 9.10395 319.765 9.34158 319.478C9.58246 319.192 9.70291 318.796 9.70291 318.292C9.70291 317.816 9.5727 317.436 9.31228 317.149C9.05512 316.859 8.7117 316.715 8.28201 316.715C7.88813 316.715 7.57888 316.801 7.35427 316.973L7.11502 317.169L6.39236 316.983Z" fill="#A3A3A3"/>
<path d="M7.2908 272.632H7.96951C8.39594 272.625 8.73123 272.513 8.97537 272.295C9.21951 272.077 9.34158 271.782 9.34158 271.411C9.34158 270.577 8.92654 270.161 8.09646 270.161C7.70584 270.161 7.39334 270.273 7.15896 270.498C6.92784 270.719 6.81228 271.014 6.81228 271.382H5.90896C5.90896 270.818 6.11404 270.351 6.5242 269.98C6.93761 269.606 7.4617 269.419 8.09646 269.419C8.76704 269.419 9.29275 269.596 9.67361 269.951C10.0545 270.306 10.2449 270.799 10.2449 271.43C10.2449 271.74 10.144 272.039 9.94217 272.329C9.7436 272.619 9.47179 272.835 9.12674 272.978C9.51736 273.102 9.81847 273.307 10.0301 273.593C10.2449 273.88 10.3523 274.23 10.3523 274.643C10.3523 275.281 10.144 275.787 9.72732 276.162C9.31065 276.536 8.76866 276.723 8.10135 276.723C7.43403 276.723 6.89041 276.543 6.47049 276.181C6.05382 275.82 5.84549 275.343 5.84549 274.751H6.75369C6.75369 275.125 6.87576 275.424 7.1199 275.649C7.36404 275.874 7.69119 275.986 8.10135 275.986C8.53754 275.986 8.8712 275.872 9.10232 275.644C9.33344 275.416 9.449 275.089 9.449 274.663C9.449 274.249 9.32205 273.932 9.06814 273.711C8.81424 273.489 8.44802 273.375 7.96951 273.369H7.2908V272.632ZM10.4353 283.593C10.4353 284.651 10.2547 285.438 9.89334 285.952C9.53201 286.466 8.96723 286.723 8.199 286.723C7.44054 286.723 6.87901 286.473 6.51443 285.971C6.14985 285.467 5.96105 284.715 5.94802 283.716V282.509C5.94802 281.465 6.12869 280.688 6.49002 280.18C6.85135 279.673 7.41775 279.419 8.18924 279.419C8.95421 279.419 9.51736 279.664 9.87869 280.156C10.24 280.644 10.4256 281.399 10.4353 282.422V283.593ZM9.53201 282.358C9.53201 281.593 9.42459 281.036 9.20974 280.688C8.9949 280.337 8.65473 280.161 8.18924 280.161C7.727 280.161 7.39008 280.335 7.17849 280.683C6.9669 281.032 6.85786 281.567 6.85135 282.29V283.735C6.85135 284.503 6.96202 285.071 7.18338 285.439C7.40799 285.804 7.74653 285.986 8.199 285.986C8.64496 285.986 8.97537 285.813 9.19021 285.468C9.40831 285.123 9.52224 284.58 9.53201 283.838V282.358Z" fill="#A3A3A3"/>
<path d="M7.2908 238.709H7.96951C8.39594 238.703 8.73123 238.591 8.97537 238.373C9.21951 238.154 9.34158 237.86 9.34158 237.489C9.34158 236.655 8.92654 236.239 8.09646 236.239C7.70584 236.239 7.39334 236.351 7.15896 236.576C6.92784 236.797 6.81228 237.092 6.81228 237.459H5.90896C5.90896 236.896 6.11404 236.429 6.5242 236.058C6.93761 235.684 7.4617 235.497 8.09646 235.497C8.76704 235.497 9.29275 235.674 9.67361 236.029C10.0545 236.384 10.2449 236.877 10.2449 237.508C10.2449 237.818 10.144 238.117 9.94217 238.407C9.7436 238.696 9.47179 238.913 9.12674 239.056C9.51736 239.18 9.81847 239.385 10.0301 239.671C10.2449 239.958 10.3523 240.308 10.3523 240.721C10.3523 241.359 10.144 241.865 9.72732 242.24C9.31065 242.614 8.76866 242.801 8.10135 242.801C7.43403 242.801 6.89041 242.621 6.47049 242.259C6.05382 241.898 5.84549 241.421 5.84549 240.829H6.75369C6.75369 241.203 6.87576 241.502 7.1199 241.727C7.36404 241.952 7.69119 242.064 8.10135 242.064C8.53754 242.064 8.8712 241.95 9.10232 241.722C9.33344 241.494 9.449 241.167 9.449 240.741C9.449 240.327 9.32205 240.01 9.06814 239.789C8.81424 239.567 8.44802 239.453 7.96951 239.447H7.2908V238.709ZM6.39236 249.139L6.75369 245.594H10.3963V246.429H7.52029L7.30545 248.368C7.65375 248.163 8.04926 248.06 8.49197 248.06C9.13976 248.06 9.65408 248.275 10.0349 248.705C10.4158 249.131 10.6062 249.709 10.6062 250.438C10.6062 251.17 10.4077 251.748 10.0105 252.171C9.61664 252.591 9.06489 252.801 8.35525 252.801C7.727 252.801 7.2143 252.627 6.81717 252.279C6.42003 251.931 6.19379 251.449 6.13845 250.833H6.99295C7.04829 251.24 7.19314 251.548 7.42752 251.756C7.66189 251.961 7.97114 252.064 8.35525 252.064C8.77517 252.064 9.10395 251.921 9.34158 251.634C9.58246 251.348 9.70291 250.952 9.70291 250.448C9.70291 249.972 9.5727 249.592 9.31228 249.305C9.05512 249.015 8.7117 248.871 8.28201 248.871C7.88813 248.871 7.57888 248.957 7.35427 249.129L7.11502 249.325L6.39236 249.139Z" fill="#A3A3A3"/>
<path d="M9.7908 207.311H10.7771V208.048H9.7908V209.698H8.8826V208.048H5.64529V207.516L8.82888 202.589H9.7908V207.311ZM6.67068 207.311H8.8826V203.824L8.77517 204.02L6.67068 207.311ZM10.4353 216.666C10.4353 217.724 10.2547 218.51 9.89334 219.025C9.53201 219.539 8.96723 219.796 8.199 219.796C7.44054 219.796 6.87901 219.545 6.51443 219.044C6.14985 218.54 5.96105 217.788 5.94802 216.788V215.582C5.94802 214.537 6.12869 213.761 6.49002 213.253C6.85135 212.745 7.41775 212.491 8.18924 212.491C8.95421 212.491 9.51736 212.737 9.87869 213.229C10.24 213.717 10.4256 214.472 10.4353 215.494V216.666ZM9.53201 215.431C9.53201 214.666 9.42459 214.109 9.20974 213.761C8.9949 213.409 8.65473 213.234 8.18924 213.234C7.727 213.234 7.39008 213.408 7.17849 213.756C6.9669 214.104 6.85786 214.64 6.85135 215.362V216.808C6.85135 217.576 6.96202 218.144 7.18338 218.512C7.40799 218.876 7.74653 219.059 8.199 219.059C8.64496 219.059 8.97537 218.886 9.19021 218.541C9.40831 218.196 9.52224 217.653 9.53201 216.91V215.431Z" fill="#A3A3A3"/>
<path d="M9.7908 173.389H10.7771V174.126H9.7908V175.777H8.8826V174.126H5.64529V173.594L8.82888 168.667H9.7908V173.389ZM6.67068 173.389H8.8826V169.902L8.77517 170.098L6.67068 173.389ZM6.39236 182.212L6.75369 178.667H10.3963V179.502H7.52029L7.30545 181.441C7.65375 181.236 8.04926 181.133 8.49197 181.133C9.13976 181.133 9.65408 181.348 10.0349 181.777C10.4158 182.204 10.6062 182.782 10.6062 183.511C10.6062 184.243 10.4077 184.821 10.0105 185.244C9.61664 185.664 9.06489 185.874 8.35525 185.874C7.727 185.874 7.2143 185.7 6.81717 185.352C6.42003 185.003 6.19379 184.522 6.13845 183.906H6.99295C7.04829 184.313 7.19314 184.621 7.42752 184.829C7.66189 185.034 7.97114 185.137 8.35525 185.137C8.77517 185.137 9.10395 184.994 9.34158 184.707C9.58246 184.421 9.70291 184.025 9.70291 183.521C9.70291 183.045 9.5727 182.665 9.31228 182.378C9.05512 182.088 8.7117 181.944 8.28201 181.944C7.88813 181.944 7.57888 182.03 7.35427 182.202L7.11502 182.398L6.39236 182.212Z" fill="#A3A3A3"/>
<path d="M6.39236 138.29L6.75369 134.745H10.3963V135.58H7.52029L7.30545 137.518C7.65375 137.313 8.04926 137.211 8.49197 137.211C9.13976 137.211 9.65408 137.426 10.0349 137.855C10.4158 138.282 10.6062 138.86 10.6062 139.589C10.6062 140.321 10.4077 140.899 10.0105 141.322C9.61664 141.742 9.06489 141.952 8.35525 141.952C7.727 141.952 7.2143 141.778 6.81717 141.43C6.42003 141.081 6.19379 140.6 6.13845 139.984H6.99295C7.04829 140.391 7.19314 140.699 7.42752 140.907C7.66189 141.112 7.97114 141.215 8.35525 141.215C8.77517 141.215 9.10395 141.072 9.34158 140.785C9.58246 140.499 9.70291 140.103 9.70291 139.599C9.70291 139.123 9.5727 138.742 9.31228 138.456C9.05512 138.166 8.7117 138.021 8.28201 138.021C7.88813 138.021 7.57888 138.108 7.35427 138.28L7.11502 138.476L6.39236 138.29ZM10.4353 148.822C10.4353 149.88 10.2547 150.666 9.89334 151.181C9.53201 151.695 8.96723 151.952 8.199 151.952C7.44054 151.952 6.87901 151.701 6.51443 151.2C6.14985 150.696 5.96105 149.944 5.94802 148.944V147.738C5.94802 146.693 6.12869 145.917 6.49002 145.409C6.85135 144.901 7.41775 144.647 8.18924 144.647C8.95421 144.647 9.51736 144.893 9.87869 145.385C10.24 145.873 10.4256 146.628 10.4353 147.65V148.822ZM9.53201 147.587C9.53201 146.822 9.42459 146.265 9.20974 145.917C8.9949 145.565 8.65473 145.39 8.18924 145.39C7.727 145.39 7.39008 145.564 7.17849 145.912C6.9669 146.26 6.85786 146.796 6.85135 147.518V148.964C6.85135 149.732 6.96202 150.3 7.18338 150.668C7.40799 151.032 7.74653 151.215 8.199 151.215C8.64496 151.215 8.97537 151.042 9.19021 150.697C9.40831 150.352 9.52224 149.809 9.53201 149.066V147.587Z" fill="#A3A3A3"/>
<path d="M6.39236 105.285L6.75369 101.74H10.3963V102.575H7.52029L7.30545 104.513C7.65375 104.308 8.04926 104.206 8.49197 104.206C9.13976 104.206 9.65408 104.421 10.0349 104.85C10.4158 105.277 10.6062 105.854 10.6062 106.584C10.6062 107.316 10.4077 107.894 10.0105 108.317C9.61664 108.737 9.06489 108.947 8.35525 108.947C7.727 108.947 7.2143 108.773 6.81717 108.424C6.42003 108.076 6.19379 107.594 6.13845 106.979H6.99295C7.04829 107.386 7.19314 107.694 7.42752 107.902C7.66189 108.107 7.97114 108.21 8.35525 108.21C8.77517 108.21 9.10395 108.066 9.34158 107.78C9.58246 107.493 9.70291 107.098 9.70291 106.593C9.70291 106.118 9.5727 105.737 9.31228 105.451C9.05512 105.161 8.7117 105.016 8.28201 105.016C7.88813 105.016 7.57888 105.102 7.35427 105.275L7.11502 105.47L6.39236 105.285ZM6.39236 115.285L6.75369 111.74H10.3963V112.575H7.52029L7.30545 114.513C7.65375 114.308 8.04926 114.206 8.49197 114.206C9.13976 114.206 9.65408 114.421 10.0349 114.85C10.4158 115.277 10.6062 115.854 10.6062 116.584C10.6062 117.316 10.4077 117.894 10.0105 118.317C9.61664 118.737 9.06489 118.947 8.35525 118.947C7.727 118.947 7.2143 118.773 6.81717 118.424C6.42003 118.076 6.19379 117.594 6.13845 116.979H6.99295C7.04829 117.386 7.19314 117.694 7.42752 117.902C7.66189 118.107 7.97114 118.21 8.35525 118.21C8.77517 118.21 9.10395 118.066 9.34158 117.78C9.58246 117.493 9.70291 117.098 9.70291 116.593C9.70291 116.118 9.5727 115.737 9.31228 115.451C9.05512 115.161 8.7117 115.016 8.28201 115.016C7.88813 115.016 7.57888 115.102 7.35427 115.275L7.11502 115.47L6.39236 115.285Z" fill="#A3A3A3"/>
<path d="M9.52224 67.813V68.5796H9.35623C8.6531 68.5926 8.09321 68.8009 7.67654 69.2046C7.25987 69.6082 7.01899 70.1762 6.95388 70.9087C7.32823 70.479 7.8393 70.2641 8.48709 70.2641C9.10558 70.2641 9.59874 70.4822 9.96658 70.9184C10.3377 71.3546 10.5232 71.9178 10.5232 72.6079C10.5232 73.3403 10.323 73.9262 9.92263 74.3657C9.5255 74.8051 8.99164 75.0249 8.32107 75.0249C7.64073 75.0249 7.08898 74.7645 6.6658 74.2436C6.24262 73.7195 6.03103 73.0457 6.03103 72.2221V71.8755C6.03103 70.5669 6.30935 69.5675 6.86599 68.8774C7.42589 68.1841 8.2576 67.8292 9.36111 67.813H9.52224ZM8.33572 71.0161C8.02648 71.0161 7.74164 71.1089 7.48123 71.2944C7.22081 71.4799 7.04015 71.7127 6.93924 71.9926V72.3247C6.93924 72.9106 7.07107 73.3826 7.33474 73.7407C7.59842 74.0988 7.92719 74.2778 8.32107 74.2778C8.72797 74.2778 9.04698 74.1281 9.2781 73.8286C9.51248 73.5291 9.62967 73.1369 9.62967 72.6518C9.62967 72.1635 9.51085 71.7697 9.27322 71.4702C9.03885 71.1674 8.72635 71.0161 8.33572 71.0161ZM10.4353 81.895C10.4353 82.9529 10.2547 83.7391 9.89334 84.2534C9.53201 84.7677 8.96723 85.0249 8.199 85.0249C7.44054 85.0249 6.87901 84.7742 6.51443 84.2729C6.14985 83.7684 5.96105 83.0164 5.94802 82.0171V80.811C5.94802 79.7661 6.12869 78.9897 6.49002 78.4819C6.85135 77.9741 7.41775 77.7202 8.18924 77.7202C8.95421 77.7202 9.51736 77.966 9.87869 78.4575C10.24 78.9458 10.4256 79.701 10.4353 80.7231V81.895ZM9.53201 80.6596C9.53201 79.8947 9.42459 79.338 9.20974 78.9897C8.9949 78.6382 8.65473 78.4624 8.18924 78.4624C7.727 78.4624 7.39008 78.6365 7.17849 78.9848C6.9669 79.3331 6.85786 79.8686 6.85135 80.5913V82.0366C6.85135 82.8048 6.96202 83.3729 7.18338 83.7407C7.40799 84.1053 7.74653 84.2876 8.199 84.2876C8.64496 84.2876 8.97537 84.115 9.19021 83.77C9.40831 83.4249 9.52224 82.8813 9.53201 82.1391V80.6596Z" fill="#A3A3A3"/>
<path d="M9.52224 33.891V34.6576H9.35623C8.6531 34.6706 8.09321 34.879 7.67654 35.2826C7.25987 35.6863 7.01899 36.2543 6.95388 36.9867C7.32823 36.557 7.8393 36.3422 8.48709 36.3422C9.10558 36.3422 9.59874 36.5603 9.96658 36.9965C10.3377 37.4327 10.5232 37.9958 10.5232 38.6859C10.5232 39.4184 10.323 40.0043 9.92263 40.4437C9.5255 40.8832 8.99164 41.1029 8.32107 41.1029C7.64073 41.1029 7.08898 40.8425 6.6658 40.3217C6.24262 39.7976 6.03103 39.1238 6.03103 38.3002V37.9535C6.03103 36.6449 6.30935 35.6456 6.86599 34.9555C7.42589 34.2621 8.2576 33.9073 9.36111 33.891H9.52224ZM8.33572 37.0941C8.02648 37.0941 7.74164 37.1869 7.48123 37.3725C7.22081 37.558 7.04015 37.7907 6.93924 38.0707V38.4027C6.93924 38.9887 7.07107 39.4607 7.33474 39.8187C7.59842 40.1768 7.92719 40.3559 8.32107 40.3559C8.72797 40.3559 9.04698 40.2061 9.2781 39.9066C9.51248 39.6072 9.62967 39.2149 9.62967 38.7299C9.62967 38.2416 9.51085 37.8477 9.27322 37.5482C9.03885 37.2455 8.72635 37.0941 8.33572 37.0941ZM6.39236 47.4408L6.75369 43.8959H10.3963V44.7309H7.52029L7.30545 46.6693C7.65375 46.4642 8.04926 46.3617 8.49197 46.3617C9.13976 46.3617 9.65408 46.5766 10.0349 47.0062C10.4158 47.4327 10.6062 48.0105 10.6062 48.7396C10.6062 49.4721 10.4077 50.0499 10.0105 50.473C9.61664 50.893 9.06489 51.1029 8.35525 51.1029C7.727 51.1029 7.2143 50.9288 6.81717 50.5805C6.42003 50.2322 6.19379 49.7504 6.13845 49.1351H6.99295C7.04829 49.542 7.19314 49.8497 7.42752 50.058C7.66189 50.2631 7.97114 50.3656 8.35525 50.3656C8.77517 50.3656 9.10395 50.2224 9.34158 49.9359C9.58246 49.6495 9.70291 49.254 9.70291 48.7494C9.70291 48.2741 9.5727 47.8933 9.31228 47.6068C9.05512 47.3171 8.7117 47.1723 8.28201 47.1723C7.88813 47.1723 7.57888 47.2585 7.35427 47.431L7.11502 47.6264L6.39236 47.4408Z" fill="#A3A3A3"/>
<path d="M10.5672 1.39844L7.62283 8H6.67556L9.61013 1.63281H5.76248V0.890625H10.5672V1.39844ZM10.4353 14.9678C10.4353 16.0257 10.2547 16.8118 9.89334 17.3262C9.53201 17.8405 8.96723 18.0977 8.199 18.0977C7.44054 18.0977 6.87901 17.847 6.51443 17.3457C6.14985 16.8411 5.96105 16.0892 5.94802 15.0898V13.8838C5.94802 12.8389 6.12869 12.0625 6.49002 11.5547C6.85135 11.0469 7.41775 10.793 8.18924 10.793C8.95421 10.793 9.51736 11.0387 9.87869 11.5303C10.24 12.0186 10.4256 12.7738 10.4353 13.7959V14.9678ZM9.53201 13.7324C9.53201 12.9674 9.42459 12.4108 9.20974 12.0625C8.9949 11.7109 8.65473 11.5352 8.18924 11.5352C7.727 11.5352 7.39008 11.7093 7.17849 12.0576C6.9669 12.4059 6.85786 12.9414 6.85135 13.6641V15.1094C6.85135 15.8776 6.96202 16.4456 7.18338 16.8135C7.40799 17.1781 7.74653 17.3604 8.199 17.3604C8.64496 17.3604 8.97537 17.1878 9.19021 16.8428C9.40831 16.4977 9.52224 15.9541 9.53201 15.2119V13.7324Z" fill="#A3A3A3"/>
<path d="M20.1709 4.58402V474.908" stroke="#F0F0F0"/>
<path d="M142.112 4.58402V474.908" stroke="#F0F0F0"/>
<path d="M264.042 4.58402V474.908" stroke="#F0F0F0"/>
<path d="M385.979 4.58402V474.908" stroke="#F0F0F0"/>
<path d="M508.829 4.58402V474.908" stroke="#F0F0F0"/>
<path d="M20.1709 474.908H507.915" stroke="#F0F0F0"/>
<path d="M20.1709 440.986H507.915" stroke="#F0F0F0"/>
<path d="M20.1709 407.981H507.915" stroke="#F0F0F0"/>
<path d="M20.1709 374.059H507.915" stroke="#F0F0F0"/>
<path d="M20.1709 340.137H507.915" stroke="#F0F0F0"/>
<path d="M20.1709 307.132H507.915" stroke="#F0F0F0"/>
<path d="M20.1709 273.21H507.915" stroke="#F0F0F0"/>
<path d="M20.1709 239.288H507.915" stroke="#F0F0F0"/>
<path d="M20.1709 206.283H507.915" stroke="#F0F0F0"/>
<path d="M20.1709 172.361H507.915" stroke="#F0F0F0"/>
<path d="M20.1709 138.438H507.915" stroke="#F0F0F0"/>
<path d="M20.1709 105.433H507.915" stroke="#F0F0F0"/>
<path d="M20.1709 71.5113H507.915" stroke="#F0F0F0"/>
<path d="M20.1709 37.5893H507.915" stroke="#F0F0F0"/>
<path d="M20.1709 4.58402H507.915" stroke="#F0F0F0"/>
<path d="M20.1709 198.948C20.1709 198.948 80.6804 44.9238 142.107 44.9238C202.616 44.9238 202.616 313.549 264.043 313.549C324.552 313.549 324.552 206.283 385.979 206.283C446.488 206.283 507.915 448.321 507.915 448.321" stroke="#A6CEE3" stroke-width="2"/>
<circle cx="20.1741" cy="198.948" r="3.66724" fill="#A6CEE3"/>
<circle cx="142.109" cy="44.9239" r="3.66724" fill="#A6CEE3"/>
<circle cx="264.044" cy="313.549" r="3.66724" fill="#A6CEE3"/>
<circle cx="385.974" cy="206.282" r="3.66724" fill="#A6CEE3"/>
<circle cx="507.915" cy="448.321" r="3.66724" fill="#A6CEE3"/>
</svg>
