<svg width="74" height="47" viewBox="0 0 74 47" fill="none" xmlns="http://www.w3.org/2000/svg">
<path d="M27.4492 32.9771L30.7407 13.6619H36.0054L32.7115 32.9771H27.4492Z" fill="#0E4595"/>
<path d="M51.7321 14.0785C50.6892 13.6871 49.0547 13.2672 47.0136 13.2672C41.8114 13.2672 38.1472 15.8869 38.1159 19.6415C38.0866 22.4169 40.7319 23.9652 42.7289 24.8891C44.7782 25.836 45.4671 26.4397 45.4573 27.285C45.4441 28.5798 43.8208 29.1711 42.3074 29.1711C40.2004 29.1711 39.0809 28.8784 37.3519 28.1574L36.6734 27.8504L35.9346 32.1742C37.1643 32.7135 39.438 33.1805 41.7991 33.2048C47.3333 33.2048 50.926 30.615 50.9668 26.6056C50.9864 24.4083 49.5839 22.7363 46.5464 21.3577C44.7063 20.4642 43.5793 19.8679 43.5913 18.9631C43.5913 18.1603 44.5452 17.3018 46.6064 17.3018C48.3279 17.2751 49.5751 17.6505 50.5468 18.0418L51.0185 18.2647L51.7321 14.0785Z" fill="#0E4595"/>
<path d="M65.2803 13.6618H61.2123C59.952 13.6618 59.0089 14.0058 58.4554 15.2636L50.6367 32.9646H56.1651C56.1651 32.9646 57.0689 30.5846 57.2733 30.062C57.8775 30.062 63.2481 30.0703 64.0158 30.0703C64.1733 30.7465 64.6563 32.9646 64.6563 32.9646H69.5415L65.2803 13.6618ZM58.8258 26.1341C59.2614 25.0212 60.9235 20.7346 60.9235 20.7346C60.8925 20.786 61.3557 19.6163 61.6215 18.8911L61.9773 20.5564C61.9773 20.5564 62.9854 25.167 63.1961 26.1338H58.8258V26.1341Z" fill="#0E4595"/>
<path d="M4.52722 13.6619L4.45996 14.0637C6.54113 14.5675 8.39992 15.2966 10.0273 16.2037L14.6987 32.9462L20.269 32.94L28.5574 13.6619H22.9802L17.826 26.8335L17.277 24.1566C17.2513 24.0739 17.2233 23.991 17.1947 23.908L15.4029 15.2926C15.0843 14.0695 14.16 13.7045 13.0166 13.6619H4.52722Z" fill="#0E4595"/>
</svg>
