<svg width="30" height="30" viewBox="0 0 30 30" fill="none" xmlns="http://www.w3.org/2000/svg">
<path d="M25.5 12H27V28.5H3V12H4.5V9.00001C4.5 4.86001 7.86 1.50001 12 1.50001C13.065 1.50001 14.085 1.72501 15 2.13001C15.9452 1.7132 16.967 1.49861 18 1.50001C22.14 1.50001 25.5 4.86001 25.5 9.00001V12ZM7.5 9.00001V12H10.5V9.00001C10.5 7.30501 11.085 5.76001 12.03 4.50001H12C9.525 4.50001 7.5 6.52501 7.5 9.00001ZM22.5 12V9.00001C22.5 6.52501 20.475 4.50001 18 4.50001H17.97C18.9563 5.79342 19.4935 7.37344 19.5 9.00001V12H22.5ZM15 5.67001C14.085 6.49501 13.5 7.68001 13.5 9.00001V12H16.5V9.00001C16.5 7.68001 15.915 6.49501 15 5.67001Z" fill="white"/>
</svg>
