<svg width="30" height="24" viewBox="0 0 30 24" fill="none" xmlns="http://www.w3.org/2000/svg">
<g clip-path="url(#clip0)">
<path d="M14.9992 18H5.99919V10.5H2.99919V22.5C2.99919 23.3297 3.6695 24 4.49919 24H16.4992C17.3289 24 17.9992 23.3297 17.9992 22.5V10.5H14.9992V18ZM29.7461 6.66562L25.7476 0.665625C25.4664 0.248437 24.9976 0 24.4961 0H5.50231C5.00075 0 4.532 0.248437 4.25544 0.665625L0.257 6.66562C-0.408625 7.66406 0.303875 9 1.50387 9H28.4992C29.6945 9 30.407 7.66406 29.7461 6.66562ZM23.9992 23.25C23.9992 23.6625 24.3367 24 24.7492 24H26.2492C26.6617 24 26.9992 23.6625 26.9992 23.25V10.5H23.9992V23.25Z" fill="white"/>
</g>
<defs>
<clipPath id="clip0">
<rect width="30" height="24" fill="white"/>
</clipPath>
</defs>
</svg>
