<svg width="43" height="43" viewBox="0 0 43 43" fill="none" xmlns="http://www.w3.org/2000/svg">
<path d="M36.5498 17.2H38.6998V40.85H4.2998V17.2H6.4498V12.9C6.4498 6.966 11.2658 2.15 17.1998 2.15C18.7263 2.15 20.1883 2.4725 21.4998 3.053C22.8545 2.45557 24.3192 2.14799 25.7998 2.15C31.7338 2.15 36.5498 6.966 36.5498 12.9V17.2ZM10.7498 12.9V17.2H15.0498V12.9C15.0498 10.4705 15.8883 8.256 17.2428 6.45H17.1998C13.6523 6.45 10.7498 9.3525 10.7498 12.9ZM32.2498 17.2V12.9C32.2498 9.3525 29.3473 6.45 25.7998 6.45H25.7568C27.1705 8.3039 27.9405 10.5686 27.9498 12.9V17.2H32.2498ZM21.4998 8.127C20.1883 9.3095 19.3498 11.008 19.3498 12.9V17.2H23.6498V12.9C23.6498 11.008 22.8113 9.3095 21.4998 8.127V8.127Z" fill="white"/>
</svg>
