<svg width="512" height="512" viewBox="0 0 512 512" fill="none" xmlns="http://www.w3.org/2000/svg">
<circle cx="256" cy="256" r="256" fill="#000517"/>
<path d="M255.999 0C114.841 0 0 114.841 0 255.999C0 327.141 29.9706 395.659 82.2258 443.986C86.4508 447.893 93.0426 447.634 96.9498 443.411C100.857 439.184 100.6 432.594 96.3732 428.687C48.369 384.291 20.8382 321.35 20.8382 255.999C20.8382 126.332 126.332 20.8382 255.999 20.8382C385.667 20.8382 491.16 126.332 491.16 255.999C491.16 385.667 385.667 491.16 255.999 491.16C250.246 491.16 245.58 495.826 245.58 501.579C245.58 507.332 250.246 511.998 255.999 511.998C397.159 511.998 511.998 397.157 511.998 255.999C511.998 114.841 397.159 0 255.999 0Z" fill="white"/>
<path d="M146.189 156.608H365.811C371.564 156.608 376.23 151.942 376.23 146.189C376.23 140.436 371.564 135.77 365.811 135.77H146.189C140.436 135.77 135.77 140.436 135.77 146.189C135.77 151.942 140.436 156.608 146.189 156.608Z" fill="white"/>
<path d="M146.189 266.418H365.811C371.564 266.418 376.23 261.752 376.23 255.999C376.23 250.246 371.564 245.58 365.811 245.58H146.189C140.436 245.58 135.77 250.246 135.77 255.999C135.77 261.752 140.436 266.418 146.189 266.418Z" fill="white"/>
<path d="M376.23 365.811C376.23 360.058 371.564 355.392 365.811 355.392H146.189C140.436 355.392 135.77 360.058 135.77 365.811C135.77 371.564 140.436 376.23 146.189 376.23H365.811C371.564 376.23 376.23 371.564 376.23 365.811Z" fill="white"/>
</svg>
