<svg width="660" height="660" viewBox="0 0 660 660" fill="none" xmlns="http://www.w3.org/2000/svg">
<circle cx="329.686" cy="329.685" r="255" transform="rotate(68.9067 329.686 329.685)" fill="#000517"/>
<path d="M584.5 319.973C579.145 178.916 460.031 68.5141 318.974 73.8688C177.918 79.2235 67.5157 198.338 72.8703 339.395C75.3924 405.833 103.133 467.826 150.982 513.958C155.123 517.953 161.721 517.832 165.713 513.689C169.706 509.549 169.587 502.954 165.444 498.958C121.491 456.583 96.0104 399.635 93.6936 338.606C88.773 209.03 190.189 99.6109 319.765 94.692C449.341 89.7731 558.758 191.189 563.677 320.763C568.596 450.337 467.18 559.757 337.606 564.675C308.38 565.785 279.667 561.571 252.267 552.152C246.824 550.282 240.897 553.176 239.025 558.618C237.159 564.062 240.049 569.988 245.492 571.86C275.335 582.118 306.592 586.708 338.398 585.5C479.453 580.146 589.855 461.031 584.5 319.973Z" fill="white"/>
<path d="M307.956 365.57C311.824 361.305 311.501 354.717 307.241 350.852C302.979 346.986 296.389 347.307 292.523 351.567L215.403 436.58C213.496 438.682 212.609 441.349 212.708 443.976C212.811 446.678 213.96 449.338 216.119 451.298C220.381 455.164 226.971 454.843 230.837 450.583L307.956 365.57Z" fill="white"/>
<path d="M351.094 290.18C349.139 292.289 348.223 294.993 348.324 297.658C348.425 300.324 349.543 302.949 351.652 304.905C355.873 308.817 362.465 308.566 366.376 304.346L441.893 222.87C445.804 218.65 445.554 212.056 441.334 208.146C437.114 204.235 430.522 204.485 426.61 208.705L351.094 290.18Z" fill="white"/>
<path d="M450.224 442.333C454.136 438.113 453.885 431.519 449.665 427.609L221.87 216.476C217.649 212.564 211.057 212.815 207.146 217.035C205.191 219.144 204.275 221.848 204.376 224.513C204.478 227.178 205.596 229.804 207.705 231.76L435.499 442.892C439.72 446.803 446.311 446.553 450.224 442.333Z" fill="white"/>
</svg>
