<svg width="74" height="52" viewBox="0 0 74 52" fill="none" xmlns="http://www.w3.org/2000/svg">
<g clip-path="url(#clip0)">
<path d="M13.4532 50.8928V47.5076C13.4532 46.2097 12.5646 45.3636 11.0415 45.3636C10.2801 45.3636 9.45515 45.5892 8.88396 46.3228C8.43996 45.7021 7.80547 45.3636 6.85359 45.3636C6.2188 45.3636 5.5846 45.5327 5.07672 46.1534V45.4764H3.74414V50.8928H5.07672V47.9024C5.07672 46.9435 5.64791 46.4919 6.53648 46.4919C7.42448 46.4919 7.86906 46.9998 7.86906 47.9024V50.8928H9.20164V47.9024C9.20164 46.9435 9.83584 46.4919 10.6608 46.4919C11.5494 46.4919 11.9934 46.9998 11.9934 47.9024V50.8928H13.4532ZM33.1878 45.4764H31.0305V43.8402H29.6979V45.4764H28.4922V46.5482H29.6976V49.031C29.6976 50.2724 30.2688 51.0057 31.7919 51.0057C32.3631 51.0057 32.9973 50.8366 33.4418 50.6109L33.0609 49.5952C32.6802 49.8208 32.2362 49.8774 31.9188 49.8774C31.2843 49.8774 31.0305 49.5389 31.0305 48.9744V46.5482H33.1878V45.4764ZM44.4832 45.3633C43.7218 45.3633 43.2142 45.7021 42.8968 46.1534V45.4764H41.5642V50.8928H42.8968V47.8461C42.8968 46.9435 43.3408 46.4356 44.1658 46.4356C44.4196 46.4356 44.737 46.4921 44.9908 46.5484L45.3715 45.4201C45.1177 45.3636 44.737 45.3636 44.4832 45.3636V45.3633ZM27.4134 45.9277C26.7787 45.5327 25.8904 45.3636 24.9385 45.3636C23.4157 45.3636 22.4005 46.0406 22.4005 47.1126C22.4005 48.0155 23.1619 48.5231 24.4945 48.6925L25.129 48.749C25.8271 48.8616 26.2078 49.031 26.2078 49.3132C26.2078 49.708 25.7002 49.9902 24.8116 49.9902C23.9233 49.9902 23.2252 49.708 22.7809 49.426L22.1464 50.3287C22.8445 50.78 23.7964 51.0057 24.748 51.0057C26.5249 51.0057 27.5403 50.2724 27.5403 49.2567C27.5403 48.2975 26.7154 47.7896 25.4461 47.6205L24.8116 47.5639C24.2404 47.5074 23.7964 47.3948 23.7964 47.0563C23.7964 46.6613 24.2404 46.4356 24.9385 46.4356C25.7002 46.4356 26.4616 46.7176 26.8423 46.8869L27.4134 45.9277ZM62.8222 45.3636C62.0605 45.3636 61.5529 45.7021 61.2355 46.1534V45.4764H59.9029V50.8928H61.2355V47.8461C61.2355 46.9435 61.6798 46.4356 62.5045 46.4356C62.7586 46.4356 63.0759 46.4921 63.3297 46.5484L63.7104 45.4201C63.4566 45.3636 63.076 45.3636 62.8222 45.3636ZM45.8157 48.1846C45.8157 49.8208 47.0847 51.0057 49.0521 51.0057C49.9404 51.0057 50.5749 50.8366 51.2094 50.3852L50.5749 49.426C50.0673 49.7645 49.5597 49.9337 48.9885 49.9337C47.9097 49.9337 47.1483 49.2567 47.1483 48.1846C47.1483 47.1691 47.9097 46.4919 48.9885 46.4356C49.5597 46.4356 50.0673 46.6047 50.5749 46.9435L51.2094 45.9843C50.5749 45.5327 49.9404 45.3636 49.0521 45.3636C47.0847 45.3636 45.8157 46.5484 45.8157 48.1846ZM58.1263 48.1846V45.4764H56.7938V46.1534C56.3495 45.6458 55.715 45.3636 54.89 45.3636C53.1767 45.3636 51.8441 46.5484 51.8441 48.1846C51.8441 49.8208 53.1767 51.0057 54.89 51.0057C55.7783 51.0057 56.4131 50.7237 56.7938 50.2159V50.8928H58.1263V48.1846ZM53.24 48.1846C53.24 47.2254 53.9381 46.4356 55.0802 46.4356C56.159 46.4356 56.9207 47.1691 56.9207 48.1846C56.9207 49.1438 56.159 49.9337 55.0802 49.9337C53.9381 49.8771 53.24 49.1438 53.24 48.1846ZM37.3127 45.3636C35.5358 45.3636 34.2665 46.4919 34.2665 48.1846C34.2665 49.8774 35.5355 51.0057 37.376 51.0057C38.2643 51.0057 39.1528 50.78 39.8509 50.2724L39.2162 49.426C38.7086 49.7645 38.0741 49.9902 37.4396 49.9902C36.6146 49.9902 35.7896 49.6517 35.5991 48.6922H40.1047V48.2412C40.1683 46.4919 39.026 45.3636 37.3124 45.3636H37.3127ZM37.3127 46.3791C38.1374 46.3791 38.7088 46.8306 38.8355 47.677H35.6627C35.7896 46.9435 36.3608 46.3791 37.3127 46.3791ZM70.3733 48.1846V43.3323H69.0408V46.1534C68.5965 45.6458 67.962 45.3636 67.137 45.3636C65.4237 45.3636 64.0911 46.5484 64.0911 48.1846C64.0911 49.8208 65.4237 51.0057 67.137 51.0057C68.0256 51.0057 68.6601 50.7237 69.0408 50.2159V50.8928H70.3733V48.1846ZM65.4873 48.1846C65.4873 47.2254 66.1851 46.4356 67.3275 46.4356C68.4063 46.4356 69.1676 47.1691 69.1676 48.1846C69.1676 49.1438 68.4063 49.9337 67.3275 49.9337C66.1851 49.8771 65.4873 49.1438 65.4873 48.1846ZM20.9408 48.1846V45.4764H19.6082V46.1534C19.1639 45.6458 18.5294 45.3636 17.7044 45.3636C15.9911 45.3636 14.6586 46.5484 14.6586 48.1846C14.6586 49.8208 15.9911 51.0057 17.7044 51.0057C18.593 51.0057 19.2275 50.7237 19.6082 50.2159V50.8928H20.9408V48.1846ZM15.9911 48.1846C15.9911 47.2254 16.6892 46.4356 17.8313 46.4356C18.9101 46.4356 19.6718 47.1691 19.6718 48.1846C19.6718 49.1438 18.9101 49.9337 17.8313 49.9337C16.6892 49.8771 15.9911 49.1438 15.9911 48.1846Z" fill="black"/>
<path d="M26.9688 4.34442H46.9574V36.2795H26.9688V4.34442Z" fill="#FF5F00"/>
<path d="M28.2382 20.3121C28.2382 13.8236 31.6648 8.06839 36.9315 4.34442C33.0609 1.63619 28.1749 0 22.8446 0C10.2163 0 0 9.08387 0 20.3121C0 31.54 10.2163 40.6241 22.8443 40.6241C28.1746 40.6241 33.0606 38.988 36.9315 36.2795C31.6648 32.612 28.2382 26.8006 28.2382 20.3121Z" fill="#EB001B"/>
<path d="M73.9267 20.3121C73.9267 31.54 63.7103 40.6241 51.0823 40.6241C45.752 40.6241 40.866 38.988 36.9951 36.2795C42.3254 32.5558 45.6887 26.8006 45.6887 20.3121C45.6887 13.8236 42.2618 8.06839 36.9951 4.34442C40.8657 1.63619 45.752 0 51.0823 0C63.7103 0 73.9269 9.14042 73.9269 20.3121H73.9267Z" fill="#F79E1B"/>
</g>
<defs>
<clipPath id="clip0">
<rect width="74" height="51.1471" fill="white"/>
</clipPath>
</defs>
</svg>
