<svg width="100" height="100" viewBox="0 0 100 100" fill="none" xmlns="http://www.w3.org/2000/svg">
<path fill-rule="evenodd" clip-rule="evenodd" d="M50 21.875C50.8288 21.875 51.6237 22.2042 52.2097 22.7903C52.7958 23.3763 53.125 24.1712 53.125 25V50C53.125 50.8288 52.7958 51.6237 52.2097 52.2097C51.6237 52.7958 50.8288 53.125 50 53.125H25C24.1712 53.125 23.3763 52.7958 22.7903 52.2097C22.2042 51.6237 21.875 50.8288 21.875 50C21.875 49.1712 22.2042 48.3763 22.7903 47.7903C23.3763 47.2042 24.1712 46.875 25 46.875H46.875V25C46.875 24.1712 47.2042 23.3763 47.7903 22.7903C48.3763 22.2042 49.1712 21.875 50 21.875V21.875Z" fill="black" fill-opacity="0.76"/>
<path fill-rule="evenodd" clip-rule="evenodd" d="M46.875 50C46.875 49.1712 47.2042 48.3763 47.7903 47.7903C48.3763 47.2042 49.1712 46.875 50 46.875H75C75.8288 46.875 76.6237 47.2042 77.2097 47.7903C77.7958 48.3763 78.125 49.1712 78.125 50C78.125 50.8288 77.7958 51.6237 77.2097 52.2097C76.6237 52.7958 75.8288 53.125 75 53.125H53.125V75C53.125 75.8288 52.7958 76.6237 52.2097 77.2097C51.6237 77.7958 50.8288 78.125 50 78.125C49.1712 78.125 48.3763 77.7958 47.7903 77.2097C47.2042 76.6237 46.875 75.8288 46.875 75V50Z" fill="black" fill-opacity="0.76"/>
</svg>
