<svg width="42" height="42" viewBox="0 0 42 42" fill="none" xmlns="http://www.w3.org/2000/svg">
<path d="M41.1528 37.6481L33.4426 29.961C35.9303 26.7919 37.2801 22.8785 37.2751 18.8497C37.2751 15.2618 36.2111 11.7545 34.2177 8.77122C32.2242 5.78798 29.3909 3.46282 26.076 2.08979C22.761 0.716753 19.1134 0.357504 15.5942 1.05747C12.0751 1.75744 8.84258 3.48519 6.30544 6.02222C3.76829 8.55926 2.04047 11.7916 1.34048 15.3106C0.640479 18.8296 0.999743 22.4771 2.37284 25.7919C3.74593 29.1067 6.07118 31.9399 9.05455 33.9333C12.0379 35.9266 15.5454 36.9905 19.1335 36.9905C23.1624 36.9956 27.076 35.6458 30.2452 33.1583L37.9327 40.8681C38.1435 41.0807 38.3943 41.2494 38.6707 41.3645C38.947 41.4796 39.2434 41.5389 39.5428 41.5389C39.8421 41.5389 40.1385 41.4796 40.4149 41.3645C40.6912 41.2494 40.942 41.0807 41.1528 40.8681C41.3654 40.6573 41.5341 40.4065 41.6492 40.1302C41.7643 39.8539 41.8236 39.5575 41.8236 39.2581C41.8236 38.9588 41.7643 38.6624 41.6492 38.3861C41.5341 38.1097 41.3654 37.859 41.1528 37.6481V37.6481ZM5.52729 18.8497C5.52729 16.1588 6.32528 13.5283 7.82034 11.2908C9.31541 9.05342 11.4404 7.30955 13.9266 6.27977C16.4128 5.24999 19.1486 4.98056 21.7879 5.50553C24.4273 6.03051 26.8516 7.32632 28.7545 9.2291C30.6574 11.1319 31.9532 13.5562 32.4782 16.1954C33.0032 18.8346 32.7338 21.5703 31.704 24.0564C30.6741 26.5425 28.9302 28.6674 26.6927 30.1624C24.4551 31.6574 21.8245 32.4553 19.1335 32.4553C15.5249 32.4553 12.0641 31.0219 9.51245 28.4703C6.96079 25.9188 5.52729 22.4582 5.52729 18.8497Z" fill="black"/>
</svg>
