<svg width="74" height="47" viewBox="0 0 74 47" fill="none" xmlns="http://www.w3.org/2000/svg">
<g clip-path="url(#clip0)">
<path d="M70.0533 0H3.94667C1.76698 0 0 1.76698 0 3.94667V42.5254C0 44.7051 1.76698 46.472 3.94667 46.472H70.0533C72.233 46.472 74 44.7051 74 42.5254V3.94667C74 1.76698 72.233 0 70.0533 0Z" fill="#00425F"/>
<path d="M15.4176 32.6354C21.6985 32.6354 26.7902 27.5436 26.7902 21.2627C26.7902 14.9817 21.6985 9.89001 15.4176 9.89001C9.13664 9.89001 4.04492 14.9817 4.04492 21.2627C4.04492 27.5436 9.13664 32.6354 15.4176 32.6354Z" fill="#EE312A"/>
<path d="M15.4181 26.1341C12.8745 20.3679 11.0091 14.9816 11.0091 14.9816H7.10938C7.10938 14.9816 9.48299 21.8953 13.8919 30.5413H16.9442C21.3531 21.8953 23.7267 14.9816 23.7267 14.9816H19.827C19.827 14.9816 17.9617 20.3679 15.4181 26.1341Z" fill="white"/>
<path d="M69.86 25.4172H62.2302C62.2302 25.4172 62.3997 27.9609 65.7908 27.9609C67.4862 27.9609 69.1818 27.4518 69.1818 27.4518L69.521 30.1645C69.521 30.1645 67.8254 30.8428 65.4516 30.8428C62.0607 30.8428 59.0088 29.1472 59.0088 24.3999C59.0088 20.6697 61.3824 18.296 64.7735 18.296C69.86 18.296 70.1992 23.3825 69.86 25.4172ZM64.604 20.6697C62.3997 20.6697 62.2302 23.0434 62.2302 23.0434H66.9776C66.9776 23.0434 66.8081 20.6697 64.604 20.6697Z" fill="white"/>
<path d="M43.6437 21.3859L44.1523 18.673C44.1523 18.673 40.2242 17.481 37.0312 19.6903V30.5414H40.4224L40.4221 21.7249C41.7784 20.7077 43.6437 21.3859 43.6437 21.3859Z" fill="white"/>
<path d="M34.3767 25.4172H26.7469C26.7469 25.4172 26.9165 27.9609 30.3075 27.9609C32.003 27.9609 33.6984 27.4518 33.6984 27.4518L34.0376 30.1645C34.0376 30.1645 32.3421 30.8428 29.9684 30.8428C26.5773 30.8428 23.5254 29.1472 23.5254 24.3999C23.5254 20.6697 25.8991 18.296 29.2902 18.296C34.3767 18.296 34.7157 23.3825 34.3767 25.4172ZM29.1206 20.6697C26.9164 20.6697 26.7469 23.0434 26.7469 23.0434H31.4943C31.4943 23.0434 31.3248 20.6697 29.1206 20.6697Z" fill="white"/>
<path d="M51.8794 26.4746C50.8253 23.9111 49.9749 21.2685 49.3361 18.5713L45.9453 18.5717C45.9453 18.5717 47.6408 25.1178 50.5233 30.5419H53.2354C56.118 25.1178 57.8134 18.5729 57.8134 18.5729H54.4226C53.7837 21.2695 52.9333 23.9116 51.8794 26.4746Z" fill="white"/>
</g>
<defs>
<clipPath id="clip0">
<rect width="74" height="46.472" fill="white"/>
</clipPath>
</defs>
</svg>
