<svg width="540" height="393" viewBox="0 0 540 393" fill="none" xmlns="http://www.w3.org/2000/svg">
<path d="M397.16 0.239075H0.18042V254H397.16V0.239075Z" fill="#E6E6E6"/>
<path d="M385.798 32.0526H11.521V238.973H385.798V32.0526Z" fill="white"/>
<path d="M396.98 0H0V16.8332H396.98V0Z" fill="#2C2CC3"/>
<path d="M12.5328 11.7259C14.2591 11.7259 15.6586 10.3291 15.6586 8.60601C15.6586 6.88294 14.2591 5.48611 12.5328 5.48611C10.8065 5.48611 9.40698 6.88294 9.40698 8.60601C9.40698 10.3291 10.8065 11.7259 12.5328 11.7259Z" fill="white"/>
<path d="M24.3978 11.7259C26.1241 11.7259 27.5236 10.3291 27.5236 8.60601C27.5236 6.88294 26.1241 5.48611 24.3978 5.48611C22.6715 5.48611 21.272 6.88294 21.272 8.60601C21.272 10.3291 22.6715 11.7259 24.3978 11.7259Z" fill="white"/>
<path d="M36.2625 11.7259C37.9889 11.7259 39.3884 10.3291 39.3884 8.60601C39.3884 6.88294 37.9889 5.48611 36.2625 5.48611C34.5362 5.48611 33.1367 6.88294 33.1367 8.60601C33.1367 10.3291 34.5362 11.7259 36.2625 11.7259Z" fill="white"/>
<path d="M130.775 49.0718H57.5715V128.34H130.775V49.0718Z" fill="#E6E6E6"/>
<path d="M235.26 49.0718H162.057V128.34H235.26V49.0718Z" fill="#E6E6E6"/>
<path d="M339.746 49.0718H266.542V128.34H339.746V49.0718Z" fill="#E6E6E6"/>
<path d="M130.775 142.688H57.5715V221.956H130.775V142.688Z" fill="#E6E6E6"/>
<path d="M235.26 142.688H162.057V221.956H235.26V142.688Z" fill="#E6E6E6"/>
<path d="M339.746 142.688H266.542V221.956H339.746V142.688Z" fill="#E6E6E6"/>
<path d="M179.75 163.06L193.125 157.782L194.681 184.171C194.681 184.171 197.48 192.243 196.547 195.348C196.547 195.348 197.169 200.625 195.614 200.936C194.058 201.246 189.704 201.867 189.393 201.557C189.082 201.246 189.082 200.315 189.082 200.315C189.082 200.315 185.971 202.488 185.66 204.972C185.66 204.972 172.596 209.008 172.285 205.282C171.974 201.557 178.817 198.452 178.817 198.452L184.105 190.38L179.75 163.06Z" fill="white"/>
<path d="M208.055 163.06L221.43 157.782L222.986 184.171C222.986 184.171 225.785 192.243 224.852 195.348C224.852 195.348 225.474 200.625 223.919 200.936C222.364 201.246 218.009 201.867 217.698 201.557C217.387 201.246 217.387 200.315 217.387 200.315C217.387 200.315 214.276 202.488 213.965 204.972C213.965 204.972 200.901 209.008 200.59 205.282C200.279 201.557 207.122 198.452 207.122 198.452L212.41 190.38L208.055 163.06Z" fill="white"/>
<path d="M209.364 61.1555C209.364 61.1555 206.516 69.098 209.815 72.6798L207.065 82.115C207.065 82.115 216.839 111.382 214.046 115.47C214.046 115.47 203.62 120.673 182.769 113.612L191.24 80.8142L190.03 66.9706L191.705 60.4669L195.429 60.0952C195.429 60.0952 193.195 68.4571 197.291 69.7579C201.386 71.0586 205.382 60.3039 205.382 60.3039L209.364 61.1555Z" fill="#3F3D56"/>
<path d="M77.8423 112.43L81.4362 113.897L98.5891 91.3961L103.98 117.81L107.574 117.158C109.879 94.3855 111.759 71.1577 109.453 60.1719L96.1387 59.6012L90.0944 78.8412L87.1539 91.8853L77.8423 112.43Z" fill="white"/>
<path d="M295.97 59.9893C295.97 59.9893 291.066 66.7953 291.305 69.5416C291.544 72.2878 294.655 117.064 294.655 117.064L301.952 117.422L299.799 85.1834L301.593 76.467L306.019 117.064L314.992 117.303L306.976 64.6461L305.421 59.9894L295.97 59.9893Z" fill="white"/>
<path d="M323.692 169.632C322.39 168.072 320.151 167.228 318.001 166.773C318.066 166.578 311.463 165.216 311.353 165.497L308.865 163.519L301.22 167.481L296.924 164.562L294.928 165.269C295.01 164.917 288.733 166.002 288.733 166.002C287.535 166.045 286.003 166.12 284.289 166.252C278.286 166.713 277.824 182.229 277.824 182.229C280.586 181.101 283.531 180.486 286.515 180.413L288.137 198.974C296.482 198.26 305.234 199.091 314.303 201.125L318.557 186.535L328.464 182.69C328.464 182.69 326.771 173.319 323.692 169.632Z" fill="#3F3D56"/>
<path d="M111.104 160.794C110.031 159.509 108.187 158.814 106.415 158.439C106.468 158.278 101.028 157.157 100.937 157.388L98.8866 155.758L92.5879 159.022L89.0481 156.617L87.4038 157.2C87.4708 156.91 82.2993 157.804 82.2993 157.804C81.3115 157.839 80.0497 157.901 78.6374 158.01C73.6912 158.389 73.3108 171.174 73.3108 171.174C75.5865 170.245 78.013 169.738 80.471 169.678L81.8079 207.114C88.6839 206.525 95.8952 207.21 103.368 208.886L106.873 174.722L115.036 171.554C115.036 171.554 113.641 163.832 111.104 160.794Z" fill="white"/>
<path d="M377.446 376.495L327.927 386.611L326.798 386.496L283.282 382.113V327.07L336.553 318.081L375.196 322.579L375.21 322.823V322.938L377.446 376.495Z" fill="#E6E6E6"/>
<path opacity="0.1" d="M377.446 376.495L327.927 386.612L326.798 386.497V330.069L375.21 322.823L377.446 376.495Z" fill="black"/>
<path opacity="0.05" d="M375.21 322.938L375.196 322.952L326.799 330.069L283.282 327.07L336.553 318.081L375.196 322.579L375.21 322.823V322.938Z" fill="black"/>
<path d="M319.38 348.241L289.273 346.28L288.351 360.385L318.458 362.346L319.38 348.241Z" fill="white"/>
<path d="M312.013 352.38L296.038 351.34L295.718 356.246L311.693 357.286L312.013 352.38Z" fill="#2C2CC3"/>
<path d="M444.561 376.495L395.042 386.611L393.914 386.496L350.397 382.113V327.07L403.668 318.081L442.311 322.579L442.326 322.823V322.938L444.561 376.495Z" fill="#2C2CC3"/>
<path opacity="0.1" d="M444.561 376.495L395.042 386.612L393.914 386.497V330.069L442.325 322.823L444.561 376.495Z" fill="black"/>
<path opacity="0.05" d="M442.325 322.938L442.311 322.952L393.914 330.069L350.397 327.07L403.668 318.081L442.311 322.579L442.325 322.823V322.938Z" fill="black"/>
<path d="M386.495 348.241L356.388 346.28L355.466 360.385L385.573 362.346L386.495 348.241Z" fill="white"/>
<path d="M379.129 352.38L363.154 351.34L362.833 356.246L378.808 357.286L379.129 352.38Z" fill="#2C2CC3"/>
<path d="M480.394 101.785C480.394 101.785 489.131 124.313 473.113 124.313C457.095 124.313 497.868 146.841 513.885 133.76C529.903 120.68 520.438 119.953 520.438 119.953C520.438 119.953 499.324 122.133 500.052 103.239L480.394 101.785Z" fill="#FFB8B8"/>
<path d="M491.775 108.566C505.996 108.566 517.525 97.0595 517.525 82.8653C517.525 68.671 505.996 57.1643 491.775 57.1643C477.554 57.1643 466.025 68.671 466.025 82.8653C466.025 97.0595 477.554 108.566 491.775 108.566Z" fill="#2F2E41"/>
<path d="M476.025 195.53L448.358 266.747C448.358 266.747 434.524 288.548 439.621 310.349C444.718 332.15 458.723 371.828 458.723 371.828C458.723 371.828 469.303 374.515 468.575 365.068C467.847 355.621 469.029 309.82 458.107 297.466L502.236 247.126L503.692 304.536C503.692 304.536 500.78 330.697 501.508 342.324C502.236 353.951 503.692 373.572 503.692 373.572L512.429 372.119C512.429 372.119 524.216 318.594 522.76 301.153C522.76 301.153 549.811 216.41 522.144 196.062L476.025 195.53Z" fill="#2F2E41"/>
<path d="M461.764 371.71C461.764 371.71 458.202 370.805 457.792 374.066C457.381 377.327 449.888 391.829 457.711 392.555C465.534 393.281 468.24 385.976 469.55 380.84C470.861 375.704 471.357 375.41 472.451 374.426C473.545 373.442 476.149 368.051 472.882 367.641C469.615 367.232 467.94 364.024 467.94 364.024C467.94 364.024 466.91 373.018 461.764 371.71Z" fill="#2F2E41"/>
<path d="M509.396 369.188C509.396 369.188 502.789 368.246 503.261 370.601C503.733 372.956 502.317 382.847 503.261 383.789C504.205 384.732 506.093 386.616 506.093 388.029C506.093 389.442 506.565 394.152 514.587 392.739C522.609 391.326 520.722 384.26 520.25 383.318C519.778 382.376 514.115 377.666 514.587 374.84C515.059 372.014 512.227 367.304 509.396 369.188Z" fill="#2F2E41"/>
<path d="M492.093 111.385C501.943 111.385 509.928 103.415 509.928 93.5839C509.928 83.7524 501.943 75.7823 492.093 75.7823C482.243 75.7823 474.258 83.7524 474.258 93.5839C474.258 103.415 482.243 111.385 492.093 111.385Z" fill="#FFB8B8"/>
<path d="M509.153 118.136C509.153 118.136 515.374 130.421 496.623 130.769C490.859 130.876 484.003 126.683 481.173 121.67C479.506 118.716 479.085 122.795 476.389 122.496C471.284 121.93 465.829 124.044 460.949 126.635C460.319 126.968 459.824 127.51 459.55 128.168C459.275 128.826 459.239 129.558 459.445 130.239C463.146 142.496 473.716 201.456 475.348 204.666C479.514 212.864 524.607 199.135 524.607 199.135C525.225 176.83 517.113 145.624 531.38 122.929C528.241 120.575 524.63 118.928 520.793 118.1C516.956 117.273 512.985 117.285 509.153 118.136Z" fill="#575A89"/>
<path d="M508.772 79.895L495.704 73.0635L477.658 75.8579L473.925 92.3167L483.219 91.9596L485.815 85.9129V91.86L490.104 91.6953L492.593 82.0687L494.148 92.3167L509.393 92.0057L508.772 79.895Z" fill="#2F2E41"/>
<path d="M493.13 63.9277C498.869 63.9277 503.521 59.2847 503.521 53.5572C503.521 47.8297 498.869 43.1866 493.13 43.1866C487.392 43.1866 482.74 47.8297 482.74 53.5572C482.74 59.2847 487.392 63.9277 493.13 63.9277Z" fill="#2F2E41"/>
<path d="M480.03 50.4009C480.03 47.9238 480.918 45.5286 482.534 43.6484C484.15 41.7682 486.386 40.5271 488.839 40.1497C487.359 39.9236 485.847 40.0195 484.408 40.4308C482.968 40.8421 481.635 41.5591 480.499 42.5327C479.363 43.5063 478.451 44.7134 477.826 46.0715C477.201 47.4295 476.877 48.9064 476.877 50.4009C476.877 51.8954 477.201 53.3722 477.826 54.7303C478.451 56.0883 479.363 57.2955 480.499 58.2691C481.635 59.2426 482.968 59.9596 484.408 60.371C485.847 60.7823 487.359 60.8782 488.839 60.6521C486.386 60.2747 484.15 59.0336 482.534 57.1534C480.918 55.2732 480.03 52.8779 480.03 50.4009Z" fill="#2F2E41"/>
<path d="M540 297.216L490.481 307.332L489.353 307.217L445.836 302.834V247.791L499.107 238.802L537.75 243.3L537.764 243.544V243.659L540 297.216Z" fill="#E6E6E6"/>
<path opacity="0.1" d="M540 297.216L490.481 307.332L489.353 307.217V250.79L537.764 243.544L540 297.216Z" fill="black"/>
<path opacity="0.05" d="M537.764 243.659L537.75 243.673L489.353 250.79L445.836 247.791L499.107 238.802L537.75 243.3L537.764 243.544V243.659Z" fill="black"/>
<path d="M481.935 268.962L451.827 267.001L450.905 281.106L481.012 283.067L481.935 268.962Z" fill="white"/>
<path d="M474.568 273.101L458.592 272.06L458.271 276.967L474.247 278.007L474.568 273.101Z" fill="#2C2CC3"/>
<path d="M462.861 233.655C462.861 233.655 444.659 248.189 452.668 253.276C460.677 258.363 470.142 233.655 470.142 233.655H462.861Z" fill="#FFB8B8"/>
<path d="M463.649 126.001C462.706 124.941 450.8 131.001 452.565 138.907L453.396 193.686C453.396 193.686 449.028 238.742 459.949 238.742C470.87 238.742 469.581 240.257 471.038 236.624C472.494 232.99 472.885 202.208 472.885 202.208L463.649 126.001Z" fill="#575A89"/>
<path d="M519.96 228.739C519.96 228.739 529.425 253.447 537.434 248.36C545.443 243.273 527.241 228.739 527.241 228.739H519.96Z" fill="#FFB8B8"/>
<path d="M522.144 197.906C522.144 197.906 517.609 228.073 519.065 231.707C520.521 235.341 519.232 233.825 530.154 233.825C541.075 233.825 536.706 188.77 536.706 188.77L537.537 133.991C539.302 126.085 527.397 120.024 526.454 121.085L515.986 156.73L522.144 197.906Z" fill="#575A89"/>
</svg>
